<mxfile host="65bd71144e">
    <diagram id="KzywgKnSVX7zRt_XmaCa" name="Non-production Env">
        <mxGraphModel dx="1820" dy="-353" grid="1" gridSize="10" guides="1" tooltips="1" connect="1" arrows="1" fold="1" page="1" pageScale="1" pageWidth="850" pageHeight="1100" math="0" shadow="0">
            <root>
                <mxCell id="0"/>
                <mxCell id="1" parent="0"/>
                <mxCell id="111" style="edgeStyle=none;html=1;" parent="1" source="109" target="106" edge="1">
                    <mxGeometry relative="1" as="geometry"/>
                </mxCell>
                <mxCell id="109" value="" style="rounded=1;whiteSpace=wrap;html=1;shadow=1;strokeColor=default;dashed=1;" parent="1" vertex="1">
                    <mxGeometry x="2060" y="3122.5" width="205" height="235" as="geometry"/>
                </mxCell>
                <mxCell id="83" style="edgeStyle=none;html=1;exitX=0.5;exitY=1;exitDx=0;exitDy=0;" parent="1" source="82" edge="1">
                    <mxGeometry relative="1" as="geometry">
                        <mxPoint x="696" y="3270" as="targetPoint"/>
                    </mxGeometry>
                </mxCell>
                <mxCell id="229" style="edgeStyle=none;html=1;exitX=0.25;exitY=1;exitDx=0;exitDy=0;" parent="1" source="82" target="227" edge="1">
                    <mxGeometry relative="1" as="geometry">
                        <Array as="points">
                            <mxPoint x="425" y="3397"/>
                        </Array>
                    </mxGeometry>
                </mxCell>
                <mxCell id="82" value="" style="rounded=1;whiteSpace=wrap;html=1;shadow=1;strokeColor=default;dashed=1;" parent="1" vertex="1">
                    <mxGeometry x="154.74" y="2530" width="1080" height="640" as="geometry"/>
                </mxCell>
                <mxCell id="23" value="EKS Cloud Infrastructure Non-Production" style="text;html=1;resizable=0;points=[];autosize=1;align=left;verticalAlign=top;spacingTop=-4;fontSize=30;fontStyle=1" parent="1" vertex="1">
                    <mxGeometry x="-360" y="2150" width="570" height="40" as="geometry"/>
                </mxCell>
                <mxCell id="24" value="Small and oversimplified overview of the cloud infrastructure for non-production environment" style="text;html=1;resizable=0;points=[];autosize=1;align=left;verticalAlign=top;spacingTop=-4;fontSize=16;container=0;" parent="1" vertex="1">
                    <mxGeometry x="-360" y="2200" width="680" height="30" as="geometry"/>
                </mxCell>
                <mxCell id="49" value="AWS Cloud - Dev Account" style="points=[[0,0],[0.25,0],[0.5,0],[0.75,0],[1,0],[1,0.25],[1,0.5],[1,0.75],[1,1],[0.75,1],[0.5,1],[0.25,1],[0,1],[0,0.75],[0,0.5],[0,0.25]];outlineConnect=0;gradientColor=none;html=1;whiteSpace=wrap;fontSize=12;fontStyle=0;container=0;pointerEvents=0;collapsible=0;recursiveResize=0;shape=mxgraph.aws4.group;grIcon=mxgraph.aws4.group_aws_cloud_alt;strokeColor=#232F3E;fillColor=none;verticalAlign=top;align=left;spacingLeft=30;fontColor=#232F3E;dashed=0;movable=1;resizable=1;rotatable=1;deletable=1;editable=1;locked=0;connectable=1;" parent="1" vertex="1">
                    <mxGeometry x="-360" y="2250" width="2240" height="1440" as="geometry"/>
                </mxCell>
                <mxCell id="54" value="&lt;div&gt;&lt;span style=&quot;background-color: transparent;&quot;&gt;Web Application&lt;/span&gt;&lt;/div&gt;&lt;div&gt;&lt;span style=&quot;color: rgb(0, 0, 0);&quot;&gt;Frontend\&lt;/span&gt;&lt;span style=&quot;background-color: transparent;&quot;&gt;&lt;b&gt;&lt;/b&gt;&lt;/span&gt;&lt;/div&gt;&lt;div&gt;&lt;span style=&quot;color: rgb(0, 0, 0);&quot;&gt;S3 Bucket&lt;/span&gt;&lt;/div&gt;" style="outlineConnect=0;dashed=0;verticalLabelPosition=bottom;verticalAlign=top;align=center;html=1;shape=mxgraph.aws3.s3;fillColor=#E05243;gradientColor=none;" parent="1" vertex="1">
                    <mxGeometry x="-160" y="2657" width="76.5" height="93" as="geometry"/>
                </mxCell>
                <mxCell id="71" value="ALB&lt;div&gt;LoadBalancer&lt;/div&gt;" style="outlineConnect=0;dashed=0;verticalLabelPosition=bottom;verticalAlign=top;align=center;html=1;shape=mxgraph.aws3.classic_load_balancer;fillColor=#F58536;gradientColor=none;" parent="1" vertex="1">
                    <mxGeometry x="126" y="3010" width="84" height="82" as="geometry"/>
                </mxCell>
                <mxCell id="52" value="VPC&amp;nbsp; Dev" style="points=[[0,0],[0.25,0],[0.5,0],[0.75,0],[1,0],[1,0.25],[1,0.5],[1,0.75],[1,1],[0.75,1],[0.5,1],[0.25,1],[0,1],[0,0.75],[0,0.5],[0,0.25]];outlineConnect=0;gradientColor=none;html=1;whiteSpace=wrap;fontSize=12;fontStyle=0;container=0;pointerEvents=0;collapsible=0;recursiveResize=0;shape=mxgraph.aws4.group;grIcon=mxgraph.aws4.group_vpc2;strokeColor=#8C4FFF;fillColor=none;verticalAlign=top;align=left;spacingLeft=30;fontColor=#AAB7B8;dashed=0;" parent="1" vertex="1">
                    <mxGeometry x="-40" y="2460" width="1370" height="1040" as="geometry"/>
                </mxCell>
                <mxCell id="61" value="Private subnet A" style="points=[[0,0],[0.25,0],[0.5,0],[0.75,0],[1,0],[1,0.25],[1,0.5],[1,0.75],[1,1],[0.75,1],[0.5,1],[0.25,1],[0,1],[0,0.75],[0,0.5],[0,0.25]];outlineConnect=0;gradientColor=none;html=1;whiteSpace=wrap;fontSize=12;fontStyle=0;container=0;pointerEvents=0;collapsible=0;recursiveResize=0;shape=mxgraph.aws4.group;grIcon=mxgraph.aws4.group_security_group;grStroke=0;strokeColor=#00A4A6;fillColor=#E6F6F7;verticalAlign=top;align=left;spacingLeft=30;fontColor=#147EBA;dashed=0;shadow=1;" parent="1" vertex="1">
                    <mxGeometry x="380" y="2630" width="330" height="480" as="geometry"/>
                </mxCell>
                <mxCell id="63" value="Private subnet B" style="points=[[0,0],[0.25,0],[0.5,0],[0.75,0],[1,0],[1,0.25],[1,0.5],[1,0.75],[1,1],[0.75,1],[0.5,1],[0.25,1],[0,1],[0,0.75],[0,0.5],[0,0.25]];outlineConnect=0;gradientColor=none;html=1;whiteSpace=wrap;fontSize=12;fontStyle=0;container=0;pointerEvents=0;collapsible=0;recursiveResize=0;shape=mxgraph.aws4.group;grIcon=mxgraph.aws4.group_security_group;grStroke=0;strokeColor=#00A4A6;fillColor=#E6F6F7;verticalAlign=top;align=left;spacingLeft=30;fontColor=#147EBA;dashed=0;shadow=1;" parent="1" vertex="1">
                    <mxGeometry x="830" y="2630" width="329.29" height="480" as="geometry"/>
                </mxCell>
                <mxCell id="79" value="" style="rounded=1;whiteSpace=wrap;html=1;shadow=1;strokeColor=default;dashed=1;" parent="1" vertex="1">
                    <mxGeometry x="479.99" y="2890" width="580" height="180" as="geometry"/>
                </mxCell>
                <mxCell id="64" value="Private subnet BD" style="points=[[0,0],[0.25,0],[0.5,0],[0.75,0],[1,0],[1,0.25],[1,0.5],[1,0.75],[1,1],[0.75,1],[0.5,1],[0.25,1],[0,1],[0,0.75],[0,0.5],[0,0.25]];outlineConnect=0;gradientColor=none;html=1;whiteSpace=wrap;fontSize=12;fontStyle=0;container=1;pointerEvents=0;collapsible=0;recursiveResize=0;shape=mxgraph.aws4.group;grIcon=mxgraph.aws4.group_security_group;grStroke=0;strokeColor=#00A4A6;fillColor=#E6F6F7;verticalAlign=top;align=left;spacingLeft=30;fontColor=#147EBA;dashed=0;shadow=1;" parent="1" vertex="1">
                    <mxGeometry x="600.5" y="3270" width="191.27" height="160" as="geometry"/>
                </mxCell>
                <mxCell id="57" value="Postgresql&amp;nbsp;&lt;div&gt;Aurora&lt;/div&gt;&lt;div&gt;&lt;br&gt;&lt;/div&gt;" style="sketch=0;points=[[0,0,0],[0.25,0,0],[0.5,0,0],[0.75,0,0],[1,0,0],[0,1,0],[0.25,1,0],[0.5,1,0],[0.75,1,0],[1,1,0],[0,0.25,0],[0,0.5,0],[0,0.75,0],[1,0.25,0],[1,0.5,0],[1,0.75,0]];outlineConnect=0;fontColor=#232F3E;fillColor=#C925D1;strokeColor=#ffffff;dashed=0;verticalLabelPosition=bottom;verticalAlign=top;align=center;html=1;fontSize=12;fontStyle=0;aspect=fixed;shape=mxgraph.aws4.resourceIcon;resIcon=mxgraph.aws4.aurora;" parent="64" vertex="1">
                    <mxGeometry x="59.15000000000003" y="40" width="78" height="78" as="geometry"/>
                </mxCell>
                <mxCell id="56" value="EKS&amp;nbsp;&lt;div&gt;K8s Control Plane&lt;/div&gt;" style="sketch=0;points=[[0,0,0],[0.25,0,0],[0.5,0,0],[0.75,0,0],[1,0,0],[0,1,0],[0.25,1,0],[0.5,1,0],[0.75,1,0],[1,1,0],[0,0.25,0],[0,0.5,0],[0,0.75,0],[1,0.25,0],[1,0.5,0],[1,0.75,0]];outlineConnect=0;fontColor=#232F3E;fillColor=#ED7100;strokeColor=#ffffff;dashed=0;verticalLabelPosition=bottom;verticalAlign=top;align=center;html=1;fontSize=12;fontStyle=0;aspect=fixed;shape=mxgraph.aws4.resourceIcon;resIcon=mxgraph.aws4.eks;" parent="1" vertex="1">
                    <mxGeometry x="210" y="2812" width="78" height="78" as="geometry"/>
                </mxCell>
                <mxCell id="74" value="" style="rounded=1;whiteSpace=wrap;html=1;strokeColor=default;shadow=1;dashed=1;" parent="1" vertex="1">
                    <mxGeometry x="480" y="2690" width="580" height="180" as="geometry"/>
                </mxCell>
                <mxCell id="66" value="EC2&lt;div&gt;Worker Node&lt;/div&gt;&lt;div&gt;Base Capacity&lt;/div&gt;" style="outlineConnect=0;dashed=0;verticalLabelPosition=bottom;verticalAlign=top;align=center;html=1;shape=mxgraph.aws3.ec2;fillColor=#F58534;gradientColor=none;" parent="1" vertex="1">
                    <mxGeometry x="523.5" y="2900" width="76.5" height="93" as="geometry"/>
                </mxCell>
                <mxCell id="67" value="EC2&lt;div&gt;Worker Node&lt;/div&gt;&lt;div&gt;Karpenter&lt;/div&gt;" style="outlineConnect=0;dashed=0;verticalLabelPosition=bottom;verticalAlign=top;align=center;html=1;shape=mxgraph.aws3.ec2;fillColor=#F58534;gradientColor=none;" parent="1" vertex="1">
                    <mxGeometry x="516.39" y="2710" width="76.5" height="93" as="geometry"/>
                </mxCell>
                <mxCell id="55" value="EC2&lt;div&gt;Worker Node&lt;/div&gt;&lt;div&gt;Base Capacity&lt;/div&gt;" style="outlineConnect=0;dashed=0;verticalLabelPosition=bottom;verticalAlign=top;align=center;html=1;shape=mxgraph.aws3.ec2;fillColor=#F58534;gradientColor=none;" parent="1" vertex="1">
                    <mxGeometry x="946.3899999999999" y="2900" width="76.5" height="93" as="geometry"/>
                </mxCell>
                <mxCell id="68" value="EC2&lt;div&gt;Worker Node&lt;/div&gt;&lt;div&gt;Karpenter&lt;/div&gt;" style="outlineConnect=0;dashed=0;verticalLabelPosition=bottom;verticalAlign=top;align=center;html=1;shape=mxgraph.aws3.ec2;fillColor=#F58534;gradientColor=none;" parent="1" vertex="1">
                    <mxGeometry x="946.3900000000001" y="2710" width="76.5" height="93" as="geometry"/>
                </mxCell>
                <mxCell id="80" value="NodeGroup Base Capacity" style="text;html=1;align=center;verticalAlign=middle;whiteSpace=wrap;rounded=0;" parent="1" vertex="1">
                    <mxGeometry x="700" y="2965" width="140.71" height="30" as="geometry"/>
                </mxCell>
                <mxCell id="123" style="edgeStyle=none;html=1;" parent="1" source="85" target="114" edge="1">
                    <mxGeometry relative="1" as="geometry"/>
                </mxCell>
                <mxCell id="127" style="edgeStyle=none;html=1;" parent="1" source="85" target="126" edge="1">
                    <mxGeometry relative="1" as="geometry"/>
                </mxCell>
                <mxCell id="85" value="Codepipeline" style="sketch=0;points=[[0,0,0],[0.25,0,0],[0.5,0,0],[0.75,0,0],[1,0,0],[0,1,0],[0.25,1,0],[0.5,1,0],[0.75,1,0],[1,1,0],[0,0.25,0],[0,0.5,0],[0,0.75,0],[1,0.25,0],[1,0.5,0],[1,0.75,0]];outlineConnect=0;fontColor=#232F3E;fillColor=#C925D1;strokeColor=#ffffff;dashed=0;verticalLabelPosition=bottom;verticalAlign=top;align=center;html=1;fontSize=12;fontStyle=0;aspect=fixed;shape=mxgraph.aws4.resourceIcon;resIcon=mxgraph.aws4.codepipeline;" parent="1" vertex="1">
                    <mxGeometry x="548.5" y="2310" width="78" height="78" as="geometry"/>
                </mxCell>
                <mxCell id="86" value="Security Group DB" style="text;html=1;align=center;verticalAlign=middle;whiteSpace=wrap;rounded=0;" parent="1" vertex="1">
                    <mxGeometry x="669.29" y="3130" width="60" height="30" as="geometry"/>
                </mxCell>
                <mxCell id="101" value="Private subnet Bastion" style="points=[[0,0],[0.25,0],[0.5,0],[0.75,0],[1,0],[1,0.25],[1,0.5],[1,0.75],[1,1],[0.75,1],[0.5,1],[0.25,1],[0,1],[0,0.75],[0,0.5],[0,0.25]];outlineConnect=0;gradientColor=none;html=1;whiteSpace=wrap;fontSize=12;fontStyle=0;container=1;pointerEvents=0;collapsible=0;recursiveResize=0;shape=mxgraph.aws4.group;grIcon=mxgraph.aws4.group_security_group;grStroke=0;strokeColor=#00A4A6;fillColor=#E6F6F7;verticalAlign=top;align=left;spacingLeft=30;fontColor=#147EBA;dashed=0;shadow=1;" parent="1" vertex="1">
                    <mxGeometry x="1490" y="3150" width="273.5" height="190" as="geometry"/>
                </mxCell>
                <mxCell id="108" style="edgeStyle=none;html=1;entryX=1;entryY=0.5;entryDx=0;entryDy=0;entryPerimeter=0;" parent="1" source="106" target="113" edge="1">
                    <mxGeometry relative="1" as="geometry"/>
                </mxCell>
                <mxCell id="106" value="VPC&amp;nbsp; Bastion Hoost" style="points=[[0,0],[0.25,0],[0.5,0],[0.75,0],[1,0],[1,0.25],[1,0.5],[1,0.75],[1,1],[0.75,1],[0.5,1],[0.25,1],[0,1],[0,0.75],[0,0.5],[0,0.25]];outlineConnect=0;gradientColor=none;html=1;whiteSpace=wrap;fontSize=12;fontStyle=0;container=0;pointerEvents=0;collapsible=0;recursiveResize=0;shape=mxgraph.aws4.group;grIcon=mxgraph.aws4.group_vpc2;strokeColor=#8C4FFF;fillColor=none;verticalAlign=top;align=left;spacingLeft=30;fontColor=#AAB7B8;dashed=0;" parent="1" vertex="1">
                    <mxGeometry x="1451.75" y="3100" width="350" height="280" as="geometry"/>
                </mxCell>
                <mxCell id="107" value="" style="shape=image;verticalLabelPosition=bottom;labelBackgroundColor=default;verticalAlign=top;aspect=fixed;imageAspect=0;image=https://www.techzine.eu/wp-content/uploads/2023/09/retool-logos-id1bEzLxxd-768x483.png;" parent="1" vertex="1">
                    <mxGeometry x="2090.94" y="3137.5" width="143.11" height="90" as="geometry"/>
                </mxCell>
                <mxCell id="110" value="" style="shape=image;verticalLabelPosition=bottom;labelBackgroundColor=default;verticalAlign=top;aspect=fixed;imageAspect=0;image=https://cdn-icons-png.flaticon.com/512/3090/3090011.png;" parent="1" vertex="1">
                    <mxGeometry x="2127.5" y="3237.5" width="70" height="70" as="geometry"/>
                </mxCell>
                <mxCell id="112" value="Third Party Tools" style="text;html=1;align=center;verticalAlign=middle;whiteSpace=wrap;rounded=0;" parent="1" vertex="1">
                    <mxGeometry x="1910" y="3257.5" width="90" height="30" as="geometry"/>
                </mxCell>
                <mxCell id="113" value="VPC Peering" style="outlineConnect=0;dashed=0;verticalLabelPosition=bottom;verticalAlign=top;align=center;html=1;shape=mxgraph.aws3.vpc_peering;fillColor=#F58536;gradientColor=none;" parent="1" vertex="1">
                    <mxGeometry x="1300" y="3201" width="69" height="72" as="geometry"/>
                </mxCell>
                <mxCell id="114" value="ECR&lt;div&gt;Registry Container&lt;/div&gt;" style="outlineConnect=0;dashed=0;verticalLabelPosition=bottom;verticalAlign=top;align=center;html=1;shape=mxgraph.aws3.ecr;fillColor=#F58534;gradientColor=none;" parent="1" vertex="1">
                    <mxGeometry x="813.75" y="2313" width="69" height="72" as="geometry"/>
                </mxCell>
                <mxCell id="120" style="edgeStyle=none;html=1;entryX=0.5;entryY=0;entryDx=0;entryDy=0;entryPerimeter=0;" parent="1" source="85" target="54" edge="1">
                    <mxGeometry relative="1" as="geometry">
                        <Array as="points">
                            <mxPoint x="-122" y="2349"/>
                        </Array>
                    </mxGeometry>
                </mxCell>
                <mxCell id="121" style="edgeStyle=none;html=1;" parent="1" source="85" edge="1">
                    <mxGeometry relative="1" as="geometry">
                        <mxPoint x="588" y="2530" as="targetPoint"/>
                    </mxGeometry>
                </mxCell>
                <mxCell id="124" value="Karpenter&#xa;Auto Scaling &#xa;Config" style="shape=image;verticalLabelPosition=bottom;labelBackgroundColor=default;verticalAlign=top;aspect=fixed;imageAspect=0;image=https://download.logo.wine/logo/Kubernetes/Kubernetes-Logo.wine.png;container=0;" parent="1" vertex="1">
                    <mxGeometry x="703.7499999999999" y="2710" width="136.96" height="91.31" as="geometry"/>
                </mxCell>
                <mxCell id="126" value="Github Repositories" style="dashed=0;outlineConnect=0;html=1;align=center;labelPosition=center;verticalLabelPosition=bottom;verticalAlign=top;shape=mxgraph.weblogos.github" parent="1" vertex="1">
                    <mxGeometry x="550" y="2090" width="75" height="75" as="geometry"/>
                </mxCell>
                <mxCell id="128" value="Encryp&lt;span style=&quot;font-family: monospace; font-size: 0px; text-align: start; text-wrap-mode: nowrap;&quot;&gt;%3CmxGraphModel%3E%3Croot%3E%3CmxCell%20id%3D%220%22%2F%3E%3CmxCell%20id%3D%221%22%20parent%3D%220%22%2F%3E%3CmxCell%20id%3D%222%22%20value%3D%22Security%20Group%20DB%22%20style%3D%22text%3Bhtml%3D1%3Balign%3Dcenter%3BverticalAlign%3Dmiddle%3BwhiteSpace%3Dwrap%3Brounded%3D0%3B%22%20vertex%3D%221%22%20parent%3D%221%22%3E%3CmxGeometry%20x%3D%22669.29%22%20y%3D%223130%22%20width%3D%2260%22%20height%3D%2230%22%20as%3D%22geometry%22%2F%3E%3C%2FmxCell%3E%3C%2Froot%3E%3C%2FmxGraphModel%3E&lt;/span&gt;tion on transit&amp;nbsp;" style="text;html=1;align=center;verticalAlign=middle;whiteSpace=wrap;rounded=0;" parent="1" vertex="1">
                    <mxGeometry x="720" y="3207.5" width="60" height="30" as="geometry"/>
                </mxCell>
                <mxCell id="129" value="Encryption&lt;div&gt;on rest&lt;/div&gt;" style="text;html=1;align=center;verticalAlign=middle;whiteSpace=wrap;rounded=0;" parent="1" vertex="1">
                    <mxGeometry x="810" y="3340" width="60" height="30" as="geometry"/>
                </mxCell>
                <mxCell id="131" style="edgeStyle=none;html=1;entryX=0.5;entryY=0;entryDx=0;entryDy=0;exitX=0.5;exitY=1;exitDx=0;exitDy=0;exitPerimeter=0;" parent="1" source="130" target="106" edge="1">
                    <mxGeometry relative="1" as="geometry">
                        <Array as="points">
                            <mxPoint x="1630" y="2820"/>
                        </Array>
                    </mxGeometry>
                </mxCell>
                <mxCell id="130" value="Developers" style="sketch=0;pointerEvents=1;shadow=0;dashed=0;html=1;strokeColor=none;labelPosition=center;verticalLabelPosition=bottom;verticalAlign=top;align=center;fillColor=#505050;shape=mxgraph.mscae.intune.user_group;movable=1;resizable=1;rotatable=1;deletable=1;editable=1;locked=0;connectable=1;container=0;" parent="1" vertex="1">
                    <mxGeometry x="1940" y="2780" width="50" height="40" as="geometry"/>
                </mxCell>
                <mxCell id="132" style="edgeStyle=none;html=1;entryX=0.996;entryY=0.424;entryDx=0;entryDy=0;entryPerimeter=0;" parent="1" source="130" target="82" edge="1">
                    <mxGeometry relative="1" as="geometry"/>
                </mxCell>
                <mxCell id="133" value="OpenVPN&#xa;Internal Access&#xa;K8s" style="shape=image;verticalLabelPosition=bottom;labelBackgroundColor=default;verticalAlign=top;aspect=fixed;imageAspect=0;image=https://cdn.iconscout.com/icon/free/png-512/openvpn-2-569521.png;container=0;" parent="1" vertex="1">
                    <mxGeometry x="1740" y="2666.75" width="73.5" height="73.5" as="geometry"/>
                </mxCell>
                <mxCell id="189" value="Kubernetes Cluster" style="image;sketch=0;aspect=fixed;html=1;points=[];align=center;fontSize=12;image=img/lib/mscae/Kubernetes.svg;movable=1;resizable=1;rotatable=1;deletable=1;editable=1;locked=0;connectable=1;container=0;" parent="1" vertex="1">
                    <mxGeometry x="1120" y="2550" width="50" height="48" as="geometry"/>
                </mxCell>
                <mxCell id="193" value="&lt;h1&gt;Worker Nodes&lt;/h1&gt;&lt;p&gt;Require network speed and storage, they could be amd or arm&amp;nbsp;&lt;br&gt;&lt;/p&gt;" style="text;html=1;strokeColor=none;fillColor=none;spacing=5;spacingTop=-20;whiteSpace=wrap;overflow=hidden;rounded=0;movable=1;resizable=1;rotatable=1;deletable=1;editable=1;locked=0;connectable=1;container=0;" parent="1" vertex="1">
                    <mxGeometry x="672.75" y="2540" width="210" height="80" as="geometry"/>
                </mxCell>
                <mxCell id="195" value="&lt;h1&gt;Master Node&lt;/h1&gt;&lt;div&gt;EKS to handle master nodes.&lt;/div&gt;&lt;p&gt;&lt;br&gt;&lt;/p&gt;" style="text;html=1;strokeColor=none;fillColor=none;spacing=5;spacingTop=-20;whiteSpace=wrap;overflow=hidden;rounded=0;movable=1;resizable=1;rotatable=1;deletable=1;editable=1;locked=0;connectable=1;container=0;" parent="1" vertex="1">
                    <mxGeometry x="175" y="2710" width="190" height="80" as="geometry"/>
                </mxCell>
                <mxCell id="198" value="Build and Push Image&amp;nbsp;" style="text;html=1;align=center;verticalAlign=middle;whiteSpace=wrap;rounded=0;" parent="1" vertex="1">
                    <mxGeometry x="680" y="2300" width="90" height="30" as="geometry"/>
                </mxCell>
                <mxCell id="199" value="Deploy to S3 Bucket" style="text;html=1;align=center;verticalAlign=middle;whiteSpace=wrap;rounded=0;" parent="1" vertex="1">
                    <mxGeometry x="390" y="2300" width="60" height="30" as="geometry"/>
                </mxCell>
                <mxCell id="200" value="PR merge trigger execution of pipelines in develop branch" style="text;html=1;align=center;verticalAlign=middle;whiteSpace=wrap;rounded=0;" parent="1" vertex="1">
                    <mxGeometry x="599.29" y="2200" width="130" height="30" as="geometry"/>
                </mxCell>
                <mxCell id="204" value="Access to internal services in AWS in private subnet" style="text;html=1;align=center;verticalAlign=middle;whiteSpace=wrap;rounded=0;" parent="1" vertex="1">
                    <mxGeometry x="1660" y="2836" width="130" height="30" as="geometry"/>
                </mxCell>
                <mxCell id="205" value="EC2 Bastion Host" style="outlineConnect=0;dashed=0;verticalLabelPosition=bottom;verticalAlign=top;align=center;html=1;shape=mxgraph.aws3.ec2;fillColor=#F58534;gradientColor=none;" parent="1" vertex="1">
                    <mxGeometry x="1593.5" y="3196.25" width="66.5" height="81.5" as="geometry"/>
                </mxCell>
                <mxCell id="207" value="Access to internal services inside the K8s cluster" style="text;html=1;align=center;verticalAlign=middle;whiteSpace=wrap;rounded=0;" parent="1" vertex="1">
                    <mxGeometry x="1580" y="2735" width="130" height="30" as="geometry"/>
                </mxCell>
                <mxCell id="210" value="Security Group with limited permissions" style="text;html=1;align=center;verticalAlign=middle;whiteSpace=wrap;rounded=0;" parent="1" vertex="1">
                    <mxGeometry x="1180" y="3320" width="130" height="30" as="geometry"/>
                </mxCell>
                <mxCell id="211" value="Role with limited permissions" style="text;html=1;align=center;verticalAlign=middle;whiteSpace=wrap;rounded=0;" parent="1" vertex="1">
                    <mxGeometry x="450" y="2480" width="130" height="30" as="geometry"/>
                </mxCell>
                <mxCell id="227" value="Cloudwatch" style="outlineConnect=0;dashed=0;verticalLabelPosition=bottom;verticalAlign=top;align=center;html=1;shape=mxgraph.aws3.cloudwatch;fillColor=#759C3E;gradientColor=none;" parent="1" vertex="1">
                    <mxGeometry x="-242.5" y="3350" width="82.5" height="93" as="geometry"/>
                </mxCell>
                <mxCell id="230" value="Export metrics with Opentelemetry EKS addon" style="text;html=1;align=center;verticalAlign=middle;whiteSpace=wrap;rounded=0;" parent="1" vertex="1">
                    <mxGeometry x="149.74" y="3350" width="145.26" height="30" as="geometry"/>
                </mxCell>
                <mxCell id="242" value="KMS&lt;div&gt;Encryption Keys&lt;/div&gt;" style="outlineConnect=0;dashed=0;verticalLabelPosition=bottom;verticalAlign=top;align=center;html=1;shape=mxgraph.aws3.kms;fillColor=#759C3E;gradientColor=none;" parent="1" vertex="1">
                    <mxGeometry x="30.000000000000014" y="3530" width="76.5" height="93" as="geometry"/>
                </mxCell>
                <mxCell id="244" value="Non-Production Environment&lt;div&gt;Role&amp;nbsp;&lt;/div&gt;" style="outlineConnect=0;dashed=0;verticalLabelPosition=bottom;verticalAlign=top;align=center;html=1;shape=mxgraph.aws3.iam;fillColor=#759C3E;gradientColor=none;" parent="1" vertex="1">
                    <mxGeometry x="196.37" y="3542" width="42" height="81" as="geometry"/>
                </mxCell>
                <mxCell id="zoQqJW5zhIUBUZJYv-_K-244" style="edgeStyle=none;html=1;" parent="1" target="zoQqJW5zhIUBUZJYv-_K-246" edge="1">
                    <mxGeometry relative="1" as="geometry">
                        <mxPoint x="1230" y="2580" as="sourcePoint"/>
                    </mxGeometry>
                </mxCell>
                <mxCell id="zoQqJW5zhIUBUZJYv-_K-245" style="edgeStyle=none;html=1;" parent="1" target="zoQqJW5zhIUBUZJYv-_K-246" edge="1">
                    <mxGeometry relative="1" as="geometry">
                        <mxPoint x="590" y="2273" as="sourcePoint"/>
                        <Array as="points">
                            <mxPoint x="1512" y="2273"/>
                        </Array>
                    </mxGeometry>
                </mxCell>
                <mxCell id="zoQqJW5zhIUBUZJYv-_K-246" value="Secret Management" style="sketch=0;points=[[0,0,0],[0.25,0,0],[0.5,0,0],[0.75,0,0],[1,0,0],[0,1,0],[0.25,1,0],[0.5,1,0],[0.75,1,0],[1,1,0],[0,0.25,0],[0,0.5,0],[0,0.75,0],[1,0.25,0],[1,0.5,0],[1,0.75,0]];outlineConnect=0;fontColor=#232F3E;fillColor=#DD344C;strokeColor=#ffffff;dashed=0;verticalLabelPosition=bottom;verticalAlign=top;align=center;html=1;fontSize=12;fontStyle=0;aspect=fixed;shape=mxgraph.aws4.resourceIcon;resIcon=mxgraph.aws4.secrets_manager;" parent="1" vertex="1">
                    <mxGeometry x="1473" y="2542" width="78" height="78" as="geometry"/>
                </mxCell>
                <mxCell id="zoQqJW5zhIUBUZJYv-_K-247" value="External Secrets Operator" style="text;html=1;align=center;verticalAlign=middle;whiteSpace=wrap;rounded=0;" parent="1" vertex="1">
                    <mxGeometry x="1330" y="2542" width="130" height="30" as="geometry"/>
                </mxCell>
                <mxCell id="zoQqJW5zhIUBUZJYv-_K-248" value="Access Secret for CI/CD Builds" style="text;html=1;align=center;verticalAlign=middle;whiteSpace=wrap;rounded=0;" parent="1" vertex="1">
                    <mxGeometry x="1153" y="2283" width="130" height="30" as="geometry"/>
                </mxCell>
                <mxCell id="vwhPQRYceHagufsqapup-244" style="edgeStyle=none;html=1;exitX=0.75;exitY=0;exitDx=0;exitDy=0;entryX=1;entryY=0.5;entryDx=0;entryDy=0;entryPerimeter=0;" parent="1" source="82" target="114" edge="1">
                    <mxGeometry relative="1" as="geometry">
                        <mxPoint x="964.75" y="2500" as="sourcePoint"/>
                        <mxPoint x="882.75" y="2341" as="targetPoint"/>
                        <Array as="points">
                            <mxPoint x="965" y="2350"/>
                        </Array>
                    </mxGeometry>
                </mxCell>
                <mxCell id="vwhPQRYceHagufsqapup-245" value="Access to private ECR repository" style="text;html=1;align=center;verticalAlign=middle;whiteSpace=wrap;rounded=0;" parent="1" vertex="1">
                    <mxGeometry x="979.75" y="2358" width="130" height="30" as="geometry"/>
                </mxCell>
            </root>
        </mxGraphModel>
    </diagram>
    <diagram id="Go65HNAr7ZivpnWe8_LM" name="Production Env">
        <mxGraphModel dx="1820" dy="747" grid="1" gridSize="10" guides="1" tooltips="1" connect="1" arrows="1" fold="1" page="1" pageScale="1" pageWidth="850" pageHeight="1100" math="0" shadow="0">
            <root>
                <mxCell id="0"/>
                <mxCell id="1" parent="0"/>
                <mxCell id="3ELB8jVc452Fwqgz49Dp-1" style="edgeStyle=none;html=1;" parent="1" source="3ELB8jVc452Fwqgz49Dp-2" target="3ELB8jVc452Fwqgz49Dp-37" edge="1">
                    <mxGeometry relative="1" as="geometry"/>
                </mxCell>
                <mxCell id="3ELB8jVc452Fwqgz49Dp-2" value="" style="rounded=1;whiteSpace=wrap;html=1;shadow=1;strokeColor=default;dashed=1;" parent="1" vertex="1">
                    <mxGeometry x="2060" y="1492.5" width="205" height="235" as="geometry"/>
                </mxCell>
                <mxCell id="3ELB8jVc452Fwqgz49Dp-3" style="edgeStyle=none;html=1;exitX=0.5;exitY=1;exitDx=0;exitDy=0;" parent="1" source="3ELB8jVc452Fwqgz49Dp-4" edge="1">
                    <mxGeometry relative="1" as="geometry">
                        <mxPoint x="696" y="1640" as="targetPoint"/>
                    </mxGeometry>
                </mxCell>
                <mxCell id="TI6-WOh6H9MHgOx9hqgg-5" style="edgeStyle=none;html=1;exitX=1;exitY=0.137;exitDx=0;exitDy=0;exitPerimeter=0;" parent="1" source="3ELB8jVc452Fwqgz49Dp-4" target="TI6-WOh6H9MHgOx9hqgg-2" edge="1">
                    <mxGeometry relative="1" as="geometry"/>
                </mxCell>
                <mxCell id="3ELB8jVc452Fwqgz49Dp-4" value="" style="rounded=1;whiteSpace=wrap;html=1;shadow=1;strokeColor=default;dashed=1;" parent="1" vertex="1">
                    <mxGeometry x="154.74" y="900" width="1080" height="640" as="geometry"/>
                </mxCell>
                <mxCell id="3ELB8jVc452Fwqgz49Dp-5" value="AWS Cloud - Production Account" style="points=[[0,0],[0.25,0],[0.5,0],[0.75,0],[1,0],[1,0.25],[1,0.5],[1,0.75],[1,1],[0.75,1],[0.5,1],[0.25,1],[0,1],[0,0.75],[0,0.5],[0,0.25]];outlineConnect=0;gradientColor=none;html=1;whiteSpace=wrap;fontSize=12;fontStyle=0;container=0;pointerEvents=0;collapsible=0;recursiveResize=0;shape=mxgraph.aws4.group;grIcon=mxgraph.aws4.group_aws_cloud_alt;strokeColor=#232F3E;fillColor=none;verticalAlign=top;align=left;spacingLeft=30;fontColor=#232F3E;dashed=0;movable=1;resizable=1;rotatable=1;deletable=1;editable=1;locked=0;connectable=1;" parent="1" vertex="1">
                    <mxGeometry x="-360" y="620" width="2240" height="1420" as="geometry"/>
                </mxCell>
                <mxCell id="3ELB8jVc452Fwqgz49Dp-6" style="edgeStyle=none;html=1;" parent="1" source="3ELB8jVc452Fwqgz49Dp-7" target="3ELB8jVc452Fwqgz49Dp-31" edge="1">
                    <mxGeometry relative="1" as="geometry"/>
                </mxCell>
                <mxCell id="3ELB8jVc452Fwqgz49Dp-7" value="Users" style="sketch=0;pointerEvents=1;shadow=0;dashed=0;html=1;strokeColor=none;labelPosition=center;verticalLabelPosition=bottom;verticalAlign=top;align=center;fillColor=#505050;shape=mxgraph.mscae.intune.user_group;movable=1;resizable=1;rotatable=1;deletable=1;editable=1;locked=0;connectable=1;container=0;" parent="1" vertex="1">
                    <mxGeometry x="-510" y="1402.5" width="50" height="37" as="geometry"/>
                </mxCell>
                <mxCell id="3ELB8jVc452Fwqgz49Dp-8" value="&lt;div&gt;&lt;span style=&quot;background-color: transparent;&quot;&gt;Web Application&lt;/span&gt;&lt;/div&gt;&lt;div&gt;&lt;span style=&quot;color: rgb(0, 0, 0);&quot;&gt;Frontend\&lt;/span&gt;&lt;span style=&quot;background-color: transparent;&quot;&gt;&lt;b&gt;&lt;/b&gt;&lt;/span&gt;&lt;/div&gt;&lt;div&gt;&lt;span style=&quot;color: rgb(0, 0, 0);&quot;&gt;S3 Bucket&lt;/span&gt;&lt;/div&gt;" style="outlineConnect=0;dashed=0;verticalLabelPosition=bottom;verticalAlign=top;align=center;html=1;shape=mxgraph.aws3.s3;fillColor=#E05243;gradientColor=none;" parent="1" vertex="1">
                    <mxGeometry x="-160" y="1027" width="76.5" height="93" as="geometry"/>
                </mxCell>
                <mxCell id="3ELB8jVc452Fwqgz49Dp-9" value="ALB&lt;div&gt;LoadBalancer&lt;/div&gt;" style="outlineConnect=0;dashed=0;verticalLabelPosition=bottom;verticalAlign=top;align=center;html=1;shape=mxgraph.aws3.classic_load_balancer;fillColor=#F58536;gradientColor=none;" parent="1" vertex="1">
                    <mxGeometry x="126" y="1380" width="84" height="82" as="geometry"/>
                </mxCell>
                <mxCell id="3ELB8jVc452Fwqgz49Dp-10" value="VPC&amp;nbsp; Production" style="points=[[0,0],[0.25,0],[0.5,0],[0.75,0],[1,0],[1,0.25],[1,0.5],[1,0.75],[1,1],[0.75,1],[0.5,1],[0.25,1],[0,1],[0,0.75],[0,0.5],[0,0.25]];outlineConnect=0;gradientColor=none;html=1;whiteSpace=wrap;fontSize=12;fontStyle=0;container=0;pointerEvents=0;collapsible=0;recursiveResize=0;shape=mxgraph.aws4.group;grIcon=mxgraph.aws4.group_vpc2;strokeColor=#8C4FFF;fillColor=none;verticalAlign=top;align=left;spacingLeft=30;fontColor=#AAB7B8;dashed=0;" parent="1" vertex="1">
                    <mxGeometry x="-40" y="830" width="1370" height="1040" as="geometry"/>
                </mxCell>
                <mxCell id="3ELB8jVc452Fwqgz49Dp-11" value="Private subnet A" style="points=[[0,0],[0.25,0],[0.5,0],[0.75,0],[1,0],[1,0.25],[1,0.5],[1,0.75],[1,1],[0.75,1],[0.5,1],[0.25,1],[0,1],[0,0.75],[0,0.5],[0,0.25]];outlineConnect=0;gradientColor=none;html=1;whiteSpace=wrap;fontSize=12;fontStyle=0;container=0;pointerEvents=0;collapsible=0;recursiveResize=0;shape=mxgraph.aws4.group;grIcon=mxgraph.aws4.group_security_group;grStroke=0;strokeColor=#00A4A6;fillColor=#E6F6F7;verticalAlign=top;align=left;spacingLeft=30;fontColor=#147EBA;dashed=0;shadow=1;" parent="1" vertex="1">
                    <mxGeometry x="380" y="1000" width="330" height="480" as="geometry"/>
                </mxCell>
                <mxCell id="3ELB8jVc452Fwqgz49Dp-12" value="Private subnet B" style="points=[[0,0],[0.25,0],[0.5,0],[0.75,0],[1,0],[1,0.25],[1,0.5],[1,0.75],[1,1],[0.75,1],[0.5,1],[0.25,1],[0,1],[0,0.75],[0,0.5],[0,0.25]];outlineConnect=0;gradientColor=none;html=1;whiteSpace=wrap;fontSize=12;fontStyle=0;container=0;pointerEvents=0;collapsible=0;recursiveResize=0;shape=mxgraph.aws4.group;grIcon=mxgraph.aws4.group_security_group;grStroke=0;strokeColor=#00A4A6;fillColor=#E6F6F7;verticalAlign=top;align=left;spacingLeft=30;fontColor=#147EBA;dashed=0;shadow=1;" parent="1" vertex="1">
                    <mxGeometry x="830" y="1000" width="329.29" height="480" as="geometry"/>
                </mxCell>
                <mxCell id="3ELB8jVc452Fwqgz49Dp-13" value="" style="rounded=1;whiteSpace=wrap;html=1;shadow=1;strokeColor=default;dashed=1;" parent="1" vertex="1">
                    <mxGeometry x="479.99" y="1260" width="580" height="180" as="geometry"/>
                </mxCell>
                <mxCell id="3ELB8jVc452Fwqgz49Dp-14" value="Private subnet BD" style="points=[[0,0],[0.25,0],[0.5,0],[0.75,0],[1,0],[1,0.25],[1,0.5],[1,0.75],[1,1],[0.75,1],[0.5,1],[0.25,1],[0,1],[0,0.75],[0,0.5],[0,0.25]];outlineConnect=0;gradientColor=none;html=1;whiteSpace=wrap;fontSize=12;fontStyle=0;container=1;pointerEvents=0;collapsible=0;recursiveResize=0;shape=mxgraph.aws4.group;grIcon=mxgraph.aws4.group_security_group;grStroke=0;strokeColor=#00A4A6;fillColor=#E6F6F7;verticalAlign=top;align=left;spacingLeft=30;fontColor=#147EBA;dashed=0;shadow=1;" parent="1" vertex="1">
                    <mxGeometry x="600.5" y="1640" width="191.27" height="160" as="geometry"/>
                </mxCell>
                <mxCell id="3ELB8jVc452Fwqgz49Dp-15" value="Postgresql&amp;nbsp;&lt;div&gt;Aurora&lt;/div&gt;&lt;div&gt;&lt;br&gt;&lt;/div&gt;" style="sketch=0;points=[[0,0,0],[0.25,0,0],[0.5,0,0],[0.75,0,0],[1,0,0],[0,1,0],[0.25,1,0],[0.5,1,0],[0.75,1,0],[1,1,0],[0,0.25,0],[0,0.5,0],[0,0.75,0],[1,0.25,0],[1,0.5,0],[1,0.75,0]];outlineConnect=0;fontColor=#232F3E;fillColor=#C925D1;strokeColor=#ffffff;dashed=0;verticalLabelPosition=bottom;verticalAlign=top;align=center;html=1;fontSize=12;fontStyle=0;aspect=fixed;shape=mxgraph.aws4.resourceIcon;resIcon=mxgraph.aws4.aurora;" parent="3ELB8jVc452Fwqgz49Dp-14" vertex="1">
                    <mxGeometry x="59.15000000000003" y="40" width="78" height="78" as="geometry"/>
                </mxCell>
                <mxCell id="3ELB8jVc452Fwqgz49Dp-16" value="EKS&amp;nbsp;&lt;div&gt;K8s Control Plane&lt;/div&gt;" style="sketch=0;points=[[0,0,0],[0.25,0,0],[0.5,0,0],[0.75,0,0],[1,0,0],[0,1,0],[0.25,1,0],[0.5,1,0],[0.75,1,0],[1,1,0],[0,0.25,0],[0,0.5,0],[0,0.75,0],[1,0.25,0],[1,0.5,0],[1,0.75,0]];outlineConnect=0;fontColor=#232F3E;fillColor=#ED7100;strokeColor=#ffffff;dashed=0;verticalLabelPosition=bottom;verticalAlign=top;align=center;html=1;fontSize=12;fontStyle=0;aspect=fixed;shape=mxgraph.aws4.resourceIcon;resIcon=mxgraph.aws4.eks;" parent="1" vertex="1">
                    <mxGeometry x="210" y="1182" width="78" height="78" as="geometry"/>
                </mxCell>
                <mxCell id="3ELB8jVc452Fwqgz49Dp-17" value="" style="rounded=1;whiteSpace=wrap;html=1;shadow=1;strokeColor=default;dashed=1;" parent="1" vertex="1">
                    <mxGeometry x="480" y="1060" width="580" height="180" as="geometry"/>
                </mxCell>
                <mxCell id="3ELB8jVc452Fwqgz49Dp-18" value="EC2&lt;div&gt;Worker Node&lt;/div&gt;&lt;div&gt;Base Capacity&lt;/div&gt;" style="outlineConnect=0;dashed=0;verticalLabelPosition=bottom;verticalAlign=top;align=center;html=1;shape=mxgraph.aws3.ec2;fillColor=#F58534;gradientColor=none;" parent="1" vertex="1">
                    <mxGeometry x="523.5" y="1270" width="76.5" height="93" as="geometry"/>
                </mxCell>
                <mxCell id="3ELB8jVc452Fwqgz49Dp-19" value="EC2&lt;div&gt;Worker Node&lt;/div&gt;&lt;div&gt;Karpenter&lt;/div&gt;" style="outlineConnect=0;dashed=0;verticalLabelPosition=bottom;verticalAlign=top;align=center;html=1;shape=mxgraph.aws3.ec2;fillColor=#F58534;gradientColor=none;" parent="1" vertex="1">
                    <mxGeometry x="516.39" y="1080" width="76.5" height="93" as="geometry"/>
                </mxCell>
                <mxCell id="3ELB8jVc452Fwqgz49Dp-20" value="EC2&lt;div&gt;Worker Node&lt;/div&gt;&lt;div&gt;Base Capacity&lt;/div&gt;" style="outlineConnect=0;dashed=0;verticalLabelPosition=bottom;verticalAlign=top;align=center;html=1;shape=mxgraph.aws3.ec2;fillColor=#F58534;gradientColor=none;" parent="1" vertex="1">
                    <mxGeometry x="946.3899999999999" y="1270" width="76.5" height="93" as="geometry"/>
                </mxCell>
                <mxCell id="3ELB8jVc452Fwqgz49Dp-21" value="EC2&lt;div&gt;Worker Node&lt;/div&gt;&lt;div&gt;Karpenter&lt;/div&gt;" style="outlineConnect=0;dashed=0;verticalLabelPosition=bottom;verticalAlign=top;align=center;html=1;shape=mxgraph.aws3.ec2;fillColor=#F58534;gradientColor=none;" parent="1" vertex="1">
                    <mxGeometry x="946.3900000000001" y="1080" width="76.5" height="93" as="geometry"/>
                </mxCell>
                <mxCell id="3ELB8jVc452Fwqgz49Dp-22" value="NodeGroup Base Capacity" style="text;html=1;align=center;verticalAlign=middle;whiteSpace=wrap;rounded=0;" parent="1" vertex="1">
                    <mxGeometry x="700" y="1335" width="140.71" height="30" as="geometry"/>
                </mxCell>
                <mxCell id="3ELB8jVc452Fwqgz49Dp-23" style="edgeStyle=none;html=1;" parent="1" target="3ELB8jVc452Fwqgz49Dp-42" edge="1">
                    <mxGeometry relative="1" as="geometry">
                        <mxPoint x="626.5" y="741" as="sourcePoint"/>
                    </mxGeometry>
                </mxCell>
                <mxCell id="3ELB8jVc452Fwqgz49Dp-24" style="edgeStyle=none;html=1;" parent="1" source="3ELB8jVc452Fwqgz49Dp-25" target="3ELB8jVc452Fwqgz49Dp-46" edge="1">
                    <mxGeometry relative="1" as="geometry"/>
                </mxCell>
                <mxCell id="TI6-WOh6H9MHgOx9hqgg-3" style="edgeStyle=none;html=1;exitX=0.75;exitY=0;exitDx=0;exitDy=0;exitPerimeter=0;" parent="1" source="3ELB8jVc452Fwqgz49Dp-25" target="TI6-WOh6H9MHgOx9hqgg-2" edge="1">
                    <mxGeometry relative="1" as="geometry">
                        <Array as="points">
                            <mxPoint x="1529" y="680"/>
                        </Array>
                    </mxGeometry>
                </mxCell>
                <mxCell id="3ELB8jVc452Fwqgz49Dp-25" value="Codepipeline" style="sketch=0;points=[[0,0,0],[0.25,0,0],[0.5,0,0],[0.75,0,0],[1,0,0],[0,1,0],[0.25,1,0],[0.5,1,0],[0.75,1,0],[1,1,0],[0,0.25,0],[0,0.5,0],[0,0.75,0],[1,0.25,0],[1,0.5,0],[1,0.75,0]];outlineConnect=0;fontColor=#232F3E;fillColor=#C925D1;strokeColor=#ffffff;dashed=0;verticalLabelPosition=bottom;verticalAlign=top;align=center;html=1;fontSize=12;fontStyle=0;aspect=fixed;shape=mxgraph.aws4.resourceIcon;resIcon=mxgraph.aws4.codepipeline;" parent="1" vertex="1">
                    <mxGeometry x="548.5" y="680" width="78" height="78" as="geometry"/>
                </mxCell>
                <mxCell id="3ELB8jVc452Fwqgz49Dp-26" value="Security Group DB" style="text;html=1;align=center;verticalAlign=middle;whiteSpace=wrap;rounded=0;" parent="1" vertex="1">
                    <mxGeometry x="669.29" y="1500" width="60" height="30" as="geometry"/>
                </mxCell>
                <mxCell id="3ELB8jVc452Fwqgz49Dp-27" value="WAF" style="outlineConnect=0;dashed=0;verticalLabelPosition=bottom;verticalAlign=top;align=center;html=1;shape=mxgraph.aws3.waf;fillColor=#759C3E;gradientColor=none;" parent="1" vertex="1">
                    <mxGeometry x="-330" y="1220" width="76.5" height="93" as="geometry"/>
                </mxCell>
                <mxCell id="3ELB8jVc452Fwqgz49Dp-28" style="edgeStyle=none;html=1;exitX=0;exitY=0.21;exitDx=0;exitDy=0;exitPerimeter=0;" parent="1" source="3ELB8jVc452Fwqgz49Dp-31" target="3ELB8jVc452Fwqgz49Dp-27" edge="1">
                    <mxGeometry relative="1" as="geometry"/>
                </mxCell>
                <mxCell id="3ELB8jVc452Fwqgz49Dp-29" style="edgeStyle=none;html=1;" parent="1" source="3ELB8jVc452Fwqgz49Dp-31" target="3ELB8jVc452Fwqgz49Dp-8" edge="1">
                    <mxGeometry relative="1" as="geometry"/>
                </mxCell>
                <mxCell id="3ELB8jVc452Fwqgz49Dp-30" style="edgeStyle=none;html=1;" parent="1" source="3ELB8jVc452Fwqgz49Dp-31" target="3ELB8jVc452Fwqgz49Dp-67" edge="1">
                    <mxGeometry relative="1" as="geometry"/>
                </mxCell>
                <mxCell id="3ELB8jVc452Fwqgz49Dp-31" value="Cloudfront&lt;div&gt;CDN&lt;/div&gt;&lt;div&gt;&lt;br&gt;&lt;/div&gt;" style="outlineConnect=0;dashed=0;verticalLabelPosition=bottom;verticalAlign=top;align=center;html=1;shape=mxgraph.aws3.cloudfront;fillColor=#F58536;gradientColor=none;" parent="1" vertex="1">
                    <mxGeometry x="-160" y="1370" width="76.5" height="97.5" as="geometry"/>
                </mxCell>
                <mxCell id="3ELB8jVc452Fwqgz49Dp-32" style="edgeStyle=none;html=1;" parent="1" source="3ELB8jVc452Fwqgz49Dp-33" target="3ELB8jVc452Fwqgz49Dp-31" edge="1">
                    <mxGeometry relative="1" as="geometry"/>
                </mxCell>
                <mxCell id="3ELB8jVc452Fwqgz49Dp-33" value="Route 53" style="outlineConnect=0;dashed=0;verticalLabelPosition=bottom;verticalAlign=top;align=center;html=1;shape=mxgraph.aws3.route_53;fillColor=#F58536;gradientColor=none;" parent="1" vertex="1">
                    <mxGeometry x="-340" y="1522" width="70.5" height="85.5" as="geometry"/>
                </mxCell>
                <mxCell id="3ELB8jVc452Fwqgz49Dp-34" style="edgeStyle=none;html=1;entryX=0;entryY=0.5;entryDx=0;entryDy=0;entryPerimeter=0;" parent="1" source="3ELB8jVc452Fwqgz49Dp-31" target="3ELB8jVc452Fwqgz49Dp-9" edge="1">
                    <mxGeometry relative="1" as="geometry"/>
                </mxCell>
                <mxCell id="3ELB8jVc452Fwqgz49Dp-35" value="Private subnet Bastion" style="points=[[0,0],[0.25,0],[0.5,0],[0.75,0],[1,0],[1,0.25],[1,0.5],[1,0.75],[1,1],[0.75,1],[0.5,1],[0.25,1],[0,1],[0,0.75],[0,0.5],[0,0.25]];outlineConnect=0;gradientColor=none;html=1;whiteSpace=wrap;fontSize=12;fontStyle=0;container=1;pointerEvents=0;collapsible=0;recursiveResize=0;shape=mxgraph.aws4.group;grIcon=mxgraph.aws4.group_security_group;grStroke=0;strokeColor=#00A4A6;fillColor=#E6F6F7;verticalAlign=top;align=left;spacingLeft=30;fontColor=#147EBA;dashed=0;shadow=1;" parent="1" vertex="1">
                    <mxGeometry x="1490" y="1520" width="273.5" height="190" as="geometry"/>
                </mxCell>
                <mxCell id="3ELB8jVc452Fwqgz49Dp-36" style="edgeStyle=none;html=1;entryX=1;entryY=0.5;entryDx=0;entryDy=0;entryPerimeter=0;" parent="1" source="3ELB8jVc452Fwqgz49Dp-37" target="3ELB8jVc452Fwqgz49Dp-41" edge="1">
                    <mxGeometry relative="1" as="geometry"/>
                </mxCell>
                <mxCell id="3ELB8jVc452Fwqgz49Dp-37" value="VPC&amp;nbsp; Bastion Hoost" style="points=[[0,0],[0.25,0],[0.5,0],[0.75,0],[1,0],[1,0.25],[1,0.5],[1,0.75],[1,1],[0.75,1],[0.5,1],[0.25,1],[0,1],[0,0.75],[0,0.5],[0,0.25]];outlineConnect=0;gradientColor=none;html=1;whiteSpace=wrap;fontSize=12;fontStyle=0;container=0;pointerEvents=0;collapsible=0;recursiveResize=0;shape=mxgraph.aws4.group;grIcon=mxgraph.aws4.group_vpc2;strokeColor=#8C4FFF;fillColor=none;verticalAlign=top;align=left;spacingLeft=30;fontColor=#AAB7B8;dashed=0;" parent="1" vertex="1">
                    <mxGeometry x="1451.75" y="1470" width="350" height="280" as="geometry"/>
                </mxCell>
                <mxCell id="3ELB8jVc452Fwqgz49Dp-38" value="" style="shape=image;verticalLabelPosition=bottom;labelBackgroundColor=default;verticalAlign=top;aspect=fixed;imageAspect=0;image=https://www.techzine.eu/wp-content/uploads/2023/09/retool-logos-id1bEzLxxd-768x483.png;" parent="1" vertex="1">
                    <mxGeometry x="2090.94" y="1507.5" width="143.11" height="90" as="geometry"/>
                </mxCell>
                <mxCell id="3ELB8jVc452Fwqgz49Dp-39" value="" style="shape=image;verticalLabelPosition=bottom;labelBackgroundColor=default;verticalAlign=top;aspect=fixed;imageAspect=0;image=https://cdn-icons-png.flaticon.com/512/3090/3090011.png;" parent="1" vertex="1">
                    <mxGeometry x="2127.5" y="1607.5" width="70" height="70" as="geometry"/>
                </mxCell>
                <mxCell id="3ELB8jVc452Fwqgz49Dp-40" value="Third Party Tools" style="text;html=1;align=center;verticalAlign=middle;whiteSpace=wrap;rounded=0;" parent="1" vertex="1">
                    <mxGeometry x="1910" y="1627.5" width="90" height="30" as="geometry"/>
                </mxCell>
                <mxCell id="3ELB8jVc452Fwqgz49Dp-41" value="VPC Peering" style="outlineConnect=0;dashed=0;verticalLabelPosition=bottom;verticalAlign=top;align=center;html=1;shape=mxgraph.aws3.vpc_peering;fillColor=#F58536;gradientColor=none;" parent="1" vertex="1">
                    <mxGeometry x="1300" y="1571" width="69" height="72" as="geometry"/>
                </mxCell>
                <mxCell id="3ELB8jVc452Fwqgz49Dp-42" value="ECR&lt;div&gt;Registry Container&lt;/div&gt;" style="outlineConnect=0;dashed=0;verticalLabelPosition=bottom;verticalAlign=top;align=center;html=1;shape=mxgraph.aws3.ecr;fillColor=#F58534;gradientColor=none;" parent="1" vertex="1">
                    <mxGeometry x="813.75" y="705" width="69" height="72" as="geometry"/>
                </mxCell>
                <mxCell id="3ELB8jVc452Fwqgz49Dp-43" style="edgeStyle=none;html=1;entryX=0.5;entryY=0;entryDx=0;entryDy=0;entryPerimeter=0;" parent="1" source="3ELB8jVc452Fwqgz49Dp-25" target="3ELB8jVc452Fwqgz49Dp-8" edge="1">
                    <mxGeometry relative="1" as="geometry">
                        <Array as="points">
                            <mxPoint x="-122" y="719"/>
                        </Array>
                    </mxGeometry>
                </mxCell>
                <mxCell id="3ELB8jVc452Fwqgz49Dp-44" style="edgeStyle=none;html=1;" parent="1" source="3ELB8jVc452Fwqgz49Dp-25" edge="1">
                    <mxGeometry relative="1" as="geometry">
                        <mxPoint x="588" y="900" as="targetPoint"/>
                    </mxGeometry>
                </mxCell>
                <mxCell id="3ELB8jVc452Fwqgz49Dp-45" value="Karpenter&#xa;Auto Scaling &#xa;Config" style="shape=image;verticalLabelPosition=bottom;labelBackgroundColor=default;verticalAlign=top;aspect=fixed;imageAspect=0;image=https://download.logo.wine/logo/Kubernetes/Kubernetes-Logo.wine.png;container=0;" parent="1" vertex="1">
                    <mxGeometry x="703.7499999999999" y="1080" width="136.96" height="91.31" as="geometry"/>
                </mxCell>
                <mxCell id="3ELB8jVc452Fwqgz49Dp-46" value="Github Repositories" style="dashed=0;outlineConnect=0;html=1;align=center;labelPosition=center;verticalLabelPosition=bottom;verticalAlign=top;shape=mxgraph.weblogos.github" parent="1" vertex="1">
                    <mxGeometry x="550" y="435" width="75" height="75" as="geometry"/>
                </mxCell>
                <mxCell id="3ELB8jVc452Fwqgz49Dp-47" value="Encryp&lt;span style=&quot;font-family: monospace; font-size: 0px; text-align: start; text-wrap-mode: nowrap;&quot;&gt;%3CmxGraphModel%3E%3Croot%3E%3CmxCell%20id%3D%220%22%2F%3E%3CmxCell%20id%3D%221%22%20parent%3D%220%22%2F%3E%3CmxCell%20id%3D%222%22%20value%3D%22Security%20Group%20DB%22%20style%3D%22text%3Bhtml%3D1%3Balign%3Dcenter%3BverticalAlign%3Dmiddle%3BwhiteSpace%3Dwrap%3Brounded%3D0%3B%22%20vertex%3D%221%22%20parent%3D%221%22%3E%3CmxGeometry%20x%3D%22669.29%22%20y%3D%223130%22%20width%3D%2260%22%20height%3D%2230%22%20as%3D%22geometry%22%2F%3E%3C%2FmxCell%3E%3C%2Froot%3E%3C%2FmxGraphModel%3E&lt;/span&gt;tion on transit&amp;nbsp;" style="text;html=1;align=center;verticalAlign=middle;whiteSpace=wrap;rounded=0;" parent="1" vertex="1">
                    <mxGeometry x="720" y="1577.5" width="60" height="30" as="geometry"/>
                </mxCell>
                <mxCell id="3ELB8jVc452Fwqgz49Dp-48" value="Encryption&lt;div&gt;on rest&lt;/div&gt;" style="text;html=1;align=center;verticalAlign=middle;whiteSpace=wrap;rounded=0;" parent="1" vertex="1">
                    <mxGeometry x="810" y="1710" width="60" height="30" as="geometry"/>
                </mxCell>
                <mxCell id="3ELB8jVc452Fwqgz49Dp-49" style="edgeStyle=none;html=1;entryX=0.5;entryY=0;entryDx=0;entryDy=0;exitX=0.5;exitY=1;exitDx=0;exitDy=0;exitPerimeter=0;" parent="1" source="3ELB8jVc452Fwqgz49Dp-50" target="3ELB8jVc452Fwqgz49Dp-37" edge="1">
                    <mxGeometry relative="1" as="geometry">
                        <Array as="points">
                            <mxPoint x="1630" y="1190"/>
                        </Array>
                    </mxGeometry>
                </mxCell>
                <mxCell id="3ELB8jVc452Fwqgz49Dp-50" value="Developers" style="sketch=0;pointerEvents=1;shadow=0;dashed=0;html=1;strokeColor=none;labelPosition=center;verticalLabelPosition=bottom;verticalAlign=top;align=center;fillColor=#505050;shape=mxgraph.mscae.intune.user_group;movable=1;resizable=1;rotatable=1;deletable=1;editable=1;locked=0;connectable=1;container=0;" parent="1" vertex="1">
                    <mxGeometry x="1940" y="1150" width="50" height="40" as="geometry"/>
                </mxCell>
                <mxCell id="3ELB8jVc452Fwqgz49Dp-51" value="Kubernetes Cluster" style="image;sketch=0;aspect=fixed;html=1;points=[];align=center;fontSize=12;image=img/lib/mscae/Kubernetes.svg;movable=1;resizable=1;rotatable=1;deletable=1;editable=1;locked=0;connectable=1;container=0;" parent="1" vertex="1">
                    <mxGeometry x="1120" y="920" width="50" height="48" as="geometry"/>
                </mxCell>
                <mxCell id="3ELB8jVc452Fwqgz49Dp-52" value="&lt;h1&gt;Master Node&lt;/h1&gt;&lt;div&gt;EKS to handle master nodes.&lt;/div&gt;&lt;p&gt;&lt;br&gt;&lt;/p&gt;" style="text;html=1;strokeColor=none;fillColor=none;spacing=5;spacingTop=-20;whiteSpace=wrap;overflow=hidden;rounded=0;movable=1;resizable=1;rotatable=1;deletable=1;editable=1;locked=0;connectable=1;container=0;" parent="1" vertex="1">
                    <mxGeometry x="175" y="1070" width="190" height="80" as="geometry"/>
                </mxCell>
                <mxCell id="3ELB8jVc452Fwqgz49Dp-53" value="&lt;h1&gt;Worker Nodes&lt;/h1&gt;&lt;p&gt;Require network speed and storage, they could be amd or arm&amp;nbsp;&lt;br&gt;&lt;/p&gt;" style="text;html=1;strokeColor=none;fillColor=none;spacing=5;spacingTop=-20;whiteSpace=wrap;overflow=hidden;rounded=0;movable=1;resizable=1;rotatable=1;deletable=1;editable=1;locked=0;connectable=1;container=0;" parent="1" vertex="1">
                    <mxGeometry x="680" y="910" width="210" height="80" as="geometry"/>
                </mxCell>
                <mxCell id="3ELB8jVc452Fwqgz49Dp-54" value="EKS Cloud Infrastructure Production" style="text;html=1;resizable=0;points=[];autosize=1;align=left;verticalAlign=top;spacingTop=-4;fontSize=30;fontStyle=1" parent="1" vertex="1">
                    <mxGeometry x="-360" y="510" width="510" height="40" as="geometry"/>
                </mxCell>
                <mxCell id="3ELB8jVc452Fwqgz49Dp-55" value="Small and oversimplified overview of the cloud infrastructure for production environment" style="text;html=1;resizable=0;points=[];autosize=1;align=left;verticalAlign=top;spacingTop=-4;fontSize=16;container=0;" parent="1" vertex="1">
                    <mxGeometry x="-360" y="560" width="640" height="30" as="geometry"/>
                </mxCell>
                <mxCell id="3ELB8jVc452Fwqgz49Dp-56" value="Build and Push Image&amp;nbsp;" style="text;html=1;align=center;verticalAlign=middle;whiteSpace=wrap;rounded=0;" parent="1" vertex="1">
                    <mxGeometry x="669.29" y="750" width="90" height="30" as="geometry"/>
                </mxCell>
                <mxCell id="3ELB8jVc452Fwqgz49Dp-57" value="Deploy to S3 Bucket" style="text;html=1;align=center;verticalAlign=middle;whiteSpace=wrap;rounded=0;" parent="1" vertex="1">
                    <mxGeometry x="380" y="680" width="60" height="30" as="geometry"/>
                </mxCell>
                <mxCell id="3ELB8jVc452Fwqgz49Dp-58" value="PR merge trigger execution of pipelines in main branch" style="text;html=1;align=center;verticalAlign=middle;whiteSpace=wrap;rounded=0;" parent="1" vertex="1">
                    <mxGeometry x="600.5" y="570" width="130" height="30" as="geometry"/>
                </mxCell>
                <mxCell id="3ELB8jVc452Fwqgz49Dp-59" value="EC2 Bastion Host" style="outlineConnect=0;dashed=0;verticalLabelPosition=bottom;verticalAlign=top;align=center;html=1;shape=mxgraph.aws3.ec2;fillColor=#F58534;gradientColor=none;" parent="1" vertex="1">
                    <mxGeometry x="1593.5" y="1574.25" width="66.5" height="81.5" as="geometry"/>
                </mxCell>
                <mxCell id="3ELB8jVc452Fwqgz49Dp-60" value="Access to internal services in AWS in private subnet" style="text;html=1;align=center;verticalAlign=middle;whiteSpace=wrap;rounded=0;" parent="1" vertex="1">
                    <mxGeometry x="1700" y="1135" width="130" height="30" as="geometry"/>
                </mxCell>
                <mxCell id="3ELB8jVc452Fwqgz49Dp-61" value="Security Group with limited permissions" style="text;html=1;align=center;verticalAlign=middle;whiteSpace=wrap;rounded=0;" parent="1" vertex="1">
                    <mxGeometry x="1170" y="1680" width="130" height="30" as="geometry"/>
                </mxCell>
                <mxCell id="3ELB8jVc452Fwqgz49Dp-62" value="Role with limited permissions" style="text;html=1;align=center;verticalAlign=middle;whiteSpace=wrap;rounded=0;" parent="1" vertex="1">
                    <mxGeometry x="450" y="860" width="130" height="30" as="geometry"/>
                </mxCell>
                <mxCell id="3ELB8jVc452Fwqgz49Dp-63" style="edgeStyle=none;html=1;exitX=0.234;exitY=0.997;exitDx=0;exitDy=0;exitPerimeter=0;" parent="1" source="3ELB8jVc452Fwqgz49Dp-4" target="3ELB8jVc452Fwqgz49Dp-64" edge="1">
                    <mxGeometry relative="1" as="geometry">
                        <mxPoint x="410" y="1628" as="sourcePoint"/>
                        <Array as="points">
                            <mxPoint x="410" y="1847.5"/>
                        </Array>
                    </mxGeometry>
                </mxCell>
                <mxCell id="3ELB8jVc452Fwqgz49Dp-64" value="Cloudwatch" style="outlineConnect=0;dashed=0;verticalLabelPosition=bottom;verticalAlign=top;align=center;html=1;shape=mxgraph.aws3.cloudwatch;fillColor=#759C3E;gradientColor=none;" parent="1" vertex="1">
                    <mxGeometry x="-180" y="1797.5" width="82.5" height="93" as="geometry"/>
                </mxCell>
                <mxCell id="3ELB8jVc452Fwqgz49Dp-65" value="Export metrics with Opentelemetry EKS addon" style="text;html=1;align=center;verticalAlign=middle;whiteSpace=wrap;rounded=0;" parent="1" vertex="1">
                    <mxGeometry x="144.74" y="1797.5" width="145.26" height="30" as="geometry"/>
                </mxCell>
                <mxCell id="3ELB8jVc452Fwqgz49Dp-67" value="ACM&lt;div&gt;SSL/TLS Certificates&lt;/div&gt;" style="sketch=0;points=[[0,0,0],[0.25,0,0],[0.5,0,0],[0.75,0,0],[1,0,0],[0,1,0],[0.25,1,0],[0.5,1,0],[0.75,1,0],[1,1,0],[0,0.25,0],[0,0.5,0],[0,0.75,0],[1,0.25,0],[1,0.5,0],[1,0.75,0]];outlineConnect=0;fontColor=#232F3E;fillColor=#DD344C;strokeColor=#ffffff;dashed=0;verticalLabelPosition=bottom;verticalAlign=top;align=center;html=1;fontSize=12;fontStyle=0;aspect=fixed;shape=mxgraph.aws4.resourceIcon;resIcon=mxgraph.aws4.certificate_manager_3;" parent="1" vertex="1">
                    <mxGeometry x="-160" y="1611" width="78" height="78" as="geometry"/>
                </mxCell>
                <mxCell id="3ELB8jVc452Fwqgz49Dp-68" value="KMS&lt;div&gt;Encryption Keys&lt;/div&gt;" style="outlineConnect=0;dashed=0;verticalLabelPosition=bottom;verticalAlign=top;align=center;html=1;shape=mxgraph.aws3.kms;fillColor=#759C3E;gradientColor=none;" parent="1" vertex="1">
                    <mxGeometry x="68.24000000000001" y="1890.5" width="76.5" height="93" as="geometry"/>
                </mxCell>
                <mxCell id="3ELB8jVc452Fwqgz49Dp-69" value="Production Environment&lt;div&gt;Role&amp;nbsp;&lt;/div&gt;" style="outlineConnect=0;dashed=0;verticalLabelPosition=bottom;verticalAlign=top;align=center;html=1;shape=mxgraph.aws3.iam;fillColor=#759C3E;gradientColor=none;" parent="1" vertex="1">
                    <mxGeometry x="253" y="1902.5" width="42" height="81" as="geometry"/>
                </mxCell>
                <mxCell id="TI6-WOh6H9MHgOx9hqgg-2" value="Secret Management" style="sketch=0;points=[[0,0,0],[0.25,0,0],[0.5,0,0],[0.75,0,0],[1,0,0],[0,1,0],[0.25,1,0],[0.5,1,0],[0.75,1,0],[1,1,0],[0,0.25,0],[0,0.5,0],[0,0.75,0],[1,0.25,0],[1,0.5,0],[1,0.75,0]];outlineConnect=0;fontColor=#232F3E;fillColor=#DD344C;strokeColor=#ffffff;dashed=0;verticalLabelPosition=bottom;verticalAlign=top;align=center;html=1;fontSize=12;fontStyle=0;aspect=fixed;shape=mxgraph.aws4.resourceIcon;resIcon=mxgraph.aws4.secrets_manager;" parent="1" vertex="1">
                    <mxGeometry x="1490" y="949" width="78" height="78" as="geometry"/>
                </mxCell>
                <mxCell id="TI6-WOh6H9MHgOx9hqgg-6" value="External Secrets Operator" style="text;html=1;align=center;verticalAlign=middle;whiteSpace=wrap;rounded=0;" parent="1" vertex="1">
                    <mxGeometry x="1330" y="949" width="130" height="30" as="geometry"/>
                </mxCell>
                <mxCell id="TI6-WOh6H9MHgOx9hqgg-7" value="Access Secret for CI/CD Builds" style="text;html=1;align=center;verticalAlign=middle;whiteSpace=wrap;rounded=0;" parent="1" vertex="1">
                    <mxGeometry x="1210" y="690" width="130" height="30" as="geometry"/>
                </mxCell>
                <mxCell id="uwemm0tvhKtUB4BKBaeg-1" value="Multi AZ" style="text;html=1;align=center;verticalAlign=middle;whiteSpace=wrap;rounded=0;" parent="1" vertex="1">
                    <mxGeometry x="664.74" y="1820" width="60" height="30" as="geometry"/>
                </mxCell>
                <mxCell id="ogKL64b5S4f-uPN5g1Ab-1" style="edgeStyle=none;html=1;exitX=0.75;exitY=0;exitDx=0;exitDy=0;entryX=1;entryY=0.5;entryDx=0;entryDy=0;entryPerimeter=0;" parent="1" source="3ELB8jVc452Fwqgz49Dp-4" target="3ELB8jVc452Fwqgz49Dp-42" edge="1">
                    <mxGeometry relative="1" as="geometry">
                        <Array as="points">
                            <mxPoint x="965" y="740"/>
                        </Array>
                    </mxGeometry>
                </mxCell>
                <mxCell id="ogKL64b5S4f-uPN5g1Ab-2" value="Access to private ECR repository" style="text;html=1;align=center;verticalAlign=middle;whiteSpace=wrap;rounded=0;" parent="1" vertex="1">
                    <mxGeometry x="980" y="780" width="130" height="30" as="geometry"/>
                </mxCell>
            </root>
        </mxGraphModel>
    </diagram>
    <diagram id="CXjLfT6C46oW7g3SCq5j" name="CI/CD">
        <mxGraphModel dx="2236" dy="1067" grid="1" gridSize="10" guides="1" tooltips="1" connect="1" arrows="1" fold="1" page="1" pageScale="1" pageWidth="850" pageHeight="1100" math="0" shadow="0">
            <root>
                <mxCell id="0"/>
                <mxCell id="1" parent="0"/>
                <mxCell id="y557Q_bQhCqkkRHPXqMb-1" value="" style="rounded=1;whiteSpace=wrap;html=1;fillColor=#FFFFFF;strokeColor=#FFFFFF;shadow=1;dashed=1;" parent="1" vertex="1">
                    <mxGeometry x="-190" y="56" width="1280" height="590" as="geometry"/>
                </mxCell>
                <mxCell id="y557Q_bQhCqkkRHPXqMb-2" value="Amazon ECR" style="outlineConnect=0;dashed=0;verticalLabelPosition=bottom;verticalAlign=top;align=center;html=1;shape=mxgraph.aws3.ecr;fillColor=#F58534;gradientColor=none;" parent="1" vertex="1">
                    <mxGeometry x="770" y="313" width="69" height="72" as="geometry"/>
                </mxCell>
                <mxCell id="y557Q_bQhCqkkRHPXqMb-6" value="Slack Channel" style="shape=image;html=1;verticalAlign=top;verticalLabelPosition=bottom;labelBackgroundColor=#ffffff;imageAspect=0;aspect=fixed;image=https://cdn2.iconfinder.com/data/icons/social-media-2285/512/1_Slack_colored_svg-128.png" parent="1" vertex="1">
                    <mxGeometry x="530" y="490" width="70" height="70" as="geometry"/>
                </mxCell>
                <mxCell id="y557Q_bQhCqkkRHPXqMb-7" style="edgeStyle=orthogonalEdgeStyle;rounded=0;orthogonalLoop=1;jettySize=auto;html=1;" parent="1" source="y557Q_bQhCqkkRHPXqMb-11" target="y557Q_bQhCqkkRHPXqMb-14" edge="1">
                    <mxGeometry relative="1" as="geometry">
                        <Array as="points">
                            <mxPoint x="25" y="370"/>
                        </Array>
                    </mxGeometry>
                </mxCell>
                <mxCell id="y557Q_bQhCqkkRHPXqMb-8" value="2.- Trigger Github Action &lt;br&gt;Merge to Master" style="edgeLabel;html=1;align=center;verticalAlign=middle;resizable=0;points=[];" parent="y557Q_bQhCqkkRHPXqMb-7" connectable="0" vertex="1">
                    <mxGeometry x="0.1037" y="-2" relative="1" as="geometry">
                        <mxPoint x="-63" y="23" as="offset"/>
                    </mxGeometry>
                </mxCell>
                <mxCell id="y557Q_bQhCqkkRHPXqMb-9" style="edgeStyle=orthogonalEdgeStyle;rounded=0;orthogonalLoop=1;jettySize=auto;html=1;exitX=1;exitY=0.5;exitDx=0;exitDy=0;" parent="1" source="y557Q_bQhCqkkRHPXqMb-11" target="65hM38Zp2tYio51TE6FY-1" edge="1">
                    <mxGeometry relative="1" as="geometry">
                        <mxPoint x="170" y="353" as="sourcePoint"/>
                        <mxPoint x="320.3645999999999" y="350.29999999999995" as="targetPoint"/>
                    </mxGeometry>
                </mxCell>
                <mxCell id="y557Q_bQhCqkkRHPXqMb-10" value="4.- Webhook trigger" style="edgeLabel;html=1;align=center;verticalAlign=middle;resizable=0;points=[];" parent="y557Q_bQhCqkkRHPXqMb-9" connectable="0" vertex="1">
                    <mxGeometry x="0.2222" y="-2" relative="1" as="geometry">
                        <mxPoint x="-31" y="-17" as="offset"/>
                    </mxGeometry>
                </mxCell>
                <mxCell id="y557Q_bQhCqkkRHPXqMb-11" value="Github" style="shape=image;html=1;verticalAlign=top;verticalLabelPosition=bottom;labelBackgroundColor=#ffffff;imageAspect=0;aspect=fixed;image=https://cdn1.iconfinder.com/data/icons/picons-social/57/github_rounded-128.png" parent="1" vertex="1">
                    <mxGeometry x="70" y="308" width="82" height="82" as="geometry"/>
                </mxCell>
                <mxCell id="y557Q_bQhCqkkRHPXqMb-12" style="edgeStyle=orthogonalEdgeStyle;rounded=0;orthogonalLoop=1;jettySize=auto;html=1;entryX=0.5;entryY=1;entryDx=0;entryDy=0;" parent="1" source="y557Q_bQhCqkkRHPXqMb-14" target="y557Q_bQhCqkkRHPXqMb-11" edge="1">
                    <mxGeometry relative="1" as="geometry"/>
                </mxCell>
                <mxCell id="y557Q_bQhCqkkRHPXqMb-13" value="3.- Create version tag&amp;nbsp;&lt;br&gt;and release" style="edgeLabel;html=1;align=center;verticalAlign=middle;resizable=0;points=[];" parent="y557Q_bQhCqkkRHPXqMb-12" connectable="0" vertex="1">
                    <mxGeometry x="0.0278" y="5" relative="1" as="geometry">
                        <mxPoint x="64" as="offset"/>
                    </mxGeometry>
                </mxCell>
                <mxCell id="y557Q_bQhCqkkRHPXqMb-14" value="Github Actions" style="shape=image;verticalLabelPosition=bottom;labelBackgroundColor=default;verticalAlign=top;aspect=fixed;imageAspect=0;image=data:image/png,iVBORw0KGgoAAAANSUhEUgAAASAAAAEgCAYAAAAUg66AAAAACXBIWXMAACxLAAAsSwGlPZapAAAAAXNSR0IArs4c6QAAAARnQU1BAACxjwv8YQUAACONSURBVHgB7Z3fi1bXvca/Sm6j5voofb04kPMKjVJINQh95SQavEhiqyEXgYw/CLQQ44jQQIIZw+nhBIKaBlIIaifQixLTNPYiRBPwLUicBkpswWmhF32D0+uq+QPmrGe/a+mecX6stffaa6+19vOB7Z4xe4Izs/ezn++P9V1rhHSW+fn5DeqEY6s+99SxXn+8+DD0Vvnf3tYHGJX+Hh9/W/p4pK8brVmz5raQTrJGSNZokYHA9NTxmD4bwdkgcVAIUemAUN3AQXHKGwpQRiixgbDgeEyfjdCkDATohj7+KGPHdENIFlCAEkU7m4E6fiT5iI0ti0VpSKeUJhSgRNCC85yM3Q3OPSFljCBdEgpSMlCAIkaJzkDGDmegD2IPxGiojktKjIZCooQCFBGlhPFLMnY5XQmpmmYk98XoUyHRQAFqGYpOcBCaQYQoRhFAAWoJHV49q44Joei0hRGjDxmmtQMFKCDa7byqjmNC0YmNkYzF6F0lRiMhQaAABUC7nTclsUTy3Nxccb419697f1f+eDHr162Tdesevvf5po3/UZw3btwoiTGUsSuaFtIoFKCGiNntQFju3P1Obs7+rfh4TokKPsfHd9X5lhYe32xSQrRRi9KW/n8VYrWl39dnfL5OImOkjrMyzheNhHiHAuQZ7XaiSChDUG7O/r0QlFklNhAcOJi7d+9KjECA4JrgmLb0Hy3ECYIFcYqAaXWcohD5hQLkibbDLIjK9Zmv1fGnQmhwxCo0rkCYIEI4dmz/YSFOLYZ1Jk80FFIbClBN2hIeuJuvlODMKMGB8DQVNsUKnBLEaLs6ntj+eBuCNJSxIxoKqQwFqCKhhafscC5f+bJzgrMaRpD27H5KnR8PmU8aqeMghagaFCBHQgoPROejjz8pBAfCQ+yBGB3Y/+OQ7mgodETOUIAsUcLTU6dfS8PCA9E5d+HDQnAoOn4ILEbTwmS1NRSgVdDldDieY9IQdDrhCChG00IhWhUK0Aoo8THC00g5HWJz+ux7WVWsUuJ5JUQQI4hSQ4xkXDE7K2RJKEBLoPM8CLd64hkTYp27ME3RiQQksCePHW3SFY3UMcnFrw9CASqhw60zMl4g6hW4HYgOwiwSL3BFhw9NNNX8OC0MyxZAAdIo8cGyiSnxHG6ZMIu5nbQwuSIIkmdGMhahaSEUoKaqW0gqnzn7yxUXb5L4MeFZA0I0lHH/0Eg6TKcFqAnXQ+HJk4aECPOITnU5Sd1JAWrC9VB4ukFDQjSUjrqhzgmQEh+sUof4eHE9yO0cP/FzCk/HaECIRtLB3FBnBMh3QyGTywSgWnb+g/d9lu8Rjp3qyrZCnRAgHXJdFQ99PViFDuFByEWIAU7o+LFXfAnRSB27uhCSZS9APhPNEB42EJLlwAr8I4cmCiHyQCcS1NkKkM+Qi3ke4gLyQ6ffedvXEo+zSoQmJVOyFCAdcv1exvttVQZOx7geQlzxGJaNJNOQLDsBUuID0YH49KQGWDIxqVwPwy1SB4/VspE69ikRuiEZkZUA6XxPrZgZggPh4Zot4hOPbmgyp7xQNgKkR2dMSQ2Y6yFNAjc0dfIN2bP7SanJlBKhU5IBWQiQEh80Fk5IRZjrISE5rkIyD5WyLJLTSQuQrnShv6dyshl9PYdf/lkxFIyQUMANXfztb+qGZMgH7Uq5aXGtJIqudH0jNcQHzYS79z5L8SHBQZiPe69mQyvu/W/0s5AkSTogH53NU2/9giEXiQI0L06dfF1qMJJEy/TJCVBd8WHIRWLEQ0g2kgRFKKkQTPf4VBYfiM6BF16k+JDoQEhW897sqeNqauFYMgJUV3wQbu3Z+wxL7CRacG/iHsWmBRXpyTgnVGsFQEiSCMFK4lNpQSlK7KfP/lIISYWapXpUxXal0DUdvQCVql3O4oP+nqm3/ldVGn4nhKQGuqexqLUiSYhQ1AJUJ+EM8WG+h6ROzYFnI4k8MR2tANURH1S6ID7M95AcqFkhG0nEIhSlAFF8CFlIriIUnQDp5RXI+fTEEYoPyRkPIrQttmUbMZbh6XwIWQLTK4R7vQI9GT9bURGVACn3g33ZnXsYkGjGuhqKD8mdmg2LW/XkiGiIJgSrOs8HbwOIDycXki5RMxyLZp5QFA6otHOFEybsoviQrlEzHJtSz5yX/fHq0roD0l3O34gjzPkQUtsJbWu7UbFVB1TavcIJig8hY2o6od+3vXi1VQekvvl/imPFi+JDyIPACV3+7A/F5oiOtDpVsTUHpCtePXEEs3woPoQsxDihCvlQpEDelJZoRYB00tk5CXb8xGtc20XIMuDZwKTPChxrKykdXIB0zDkljmCkBle1E7IymDGNZ6UCb7aRDwoqQKVdLJxGa2CYGOf5EGIHnpUKQ82KZ1M/o8EImoTWeR8nqwdbiSlxhBA3kJTGOA9Hgu43FswBKfGZEEfxQcXryMs/FUKIO3h2KpTnkQ96TgIRxAFVHa+xY+eAFS9CagAHBCfkCEry20KM7wjlgLAArufyBcjmU3wIqUfFyhjyQEEWrTYuQLrkPnD5GiSduWkgIX7As1RhB9ZBiNJ8oyFYlYHyXN1OiH/QIX3ls0uua8YaD8WaFiDkfQYuXxNr3meT+sXt2P74gr+7o0RyTv1b8e+lYHYP3BP9/qOyXi9/2LjxP+7dD+NzpfVZjYF8EBauOi7XGCoB2iUN0ZgA6aqXUxwZ8/5dM9eGxQ22HIi14d4uX/my+Jgd23mBhxYP8J7dTxZnHCs9yAh7KnYlN0rFfegnlQidlQZoRICqVL3w4B6OtOS+Y/sPizeHC3gDfjXzJ7moYu/r6kzSAwKDvbmM6Lg4Bzji7Tt3RemMcS/jnnYAodjmJhasNiVAcD4TttfHvsIdm8PhRqwKxOjzK1/I+QsfRmfLyYPg4cSupK6isxi8UPFijY2KK+enlQAdFM94FyDdxOQ04+f4iZ9XydIHY/avf651I5aBG4I9j/HG7DL4/R459FIRovj8XePFGiMVQzGM7RiKR5oQIKcZPxAeCFCs7Nn9VLEzpW/gipDvill4uwASyQf27/MqPIaYwzBQIRQbKQHaLB7x2geke356ttcj9DoT+SJTxP9NgIQ2Qjskt+uEd6QaEB78/K9fu6rCraPexQeYxHWs4MXvKI499YxPiUe8CZBOPDs1LqHqFXu38xNubwhnKERhgSgY4Qnx827qBeaDW4ULdx7d8arPFfPeQjDXxHPM8bEBb0ncqCFhaNYMTeR4bMDvc/vOgcRMhVDM24p5LwKk3c8/Xb4mhYWmeEPibdkGEGhMgGTVrD4QHVS1QgpPmf73fxB1oyqqYteVA3dks48O6YfED04zZVMIvcD2hsOvlcAbCe4LTuhM8fNqTojwYOImRDiIrl6c8Xc41q97eMHHNty5+929Bw5nfI583111vqXPITqFTTl9R4u/x/G/4/Goq563tOtGLswBRDy1O6RrC5ByPwNx7PlJZaHpphU6n0MBF4Y8VN2wzIgMkqJ9dZiPjbj4xGW1EQQKXePmPO4o/1etTnJ8PxAeOJ8YiOE+Wg1MUHQMT7FYdVC3LF87BHNd7xV7z0+ZudE/JCZswzLcRHjrmvVrEJqKG9e1ihGkWX226ShH0vfUyTdWXDYTmthbTQwVUg6114nVEiDtfqyztHA/6ItIgS39vlz+7JLECNxQuXphhAYh4xPqnKLY2AIRghiZNXcm1IPonlEPT4xVpxQS0YYKCelazYl1Bcip6RCznVNZpFll/VdIzPKOp9UDl7PgrAYECUfo6pYLEEkkolOgwn1fywVV7gPS7qdnez1saEorxGOP2xFi4KHrsviAcaL5aLTiA8b5tzR+T0bQHRhoLahEnUZEp8pX7B3Pi4kph0DSZ51lBTEGKuSrKu+sWkmAtOINbK+H+0ltvnPMb1SSHindT3hWHQtFlV1QVQf0qsvFqbkfQAEiPkmhFF+mwjNbyQU5C5DuerbeNyhF9wPWU4BIhwnlgqo4oKxzP4aUYnZCmqDCs/uSOOIkQNr9TNhen6r7IYRUckHPua6Ud3VATlu2pup+AIWTEJHzbsumID5OI3lcBcg6+Uz3Q8h97iS6bZPtEpgSTgUqawHS2+z0bK+/mPg8G+7zRXyCCQCp4ji0bINLMtrFAVknmG7Ozia/FQ0FiPgk5fupQne0daHKSoB08nkglmD7mdSZY/hIPJJ6OuKie0neKhlt64CsE0tY8Z7DONE7CVtmEhdwP6k76s+vfOn6PVhphq0APWt5nXw187XkwKwKIwnxQQ7bdEN8HAcJWiWjVxUg11XvKZfey8AyMw9EfJCDAIFzbqkVq2S0jQOyTj4jUZVT6T2XG4e0y2wm9xFeyI7J6FX7Bm0EyLr5MPXS+2JSr+SROMjpRebogl5aLRm9ogDpfd6tstm5JJ/LXM8kn0XaA89FTgKEl7JDagLasXWlC1ZzQJ1LPpdx/GET8gC5PRd4HhyNxoopnNUEqLPhl+HziPdzIvFz+coXkhuOe5ytuEB1WQFyDb9yzZfkKqykefBcxLwhYVV8hmErOaBOh18GzgUiVUlpGL0rvsKwlQRoIJbk6hJw85xpaW94kj4QoHMfvJ/leF/XMGy5/7CkALk0H+YafkF8sD8SZ0OTOmBX2qmTr0tuuIZhyzUlLueArJPPuYZfeHNxax7iA2x5fOSQ87TS6HGdGb3UXy4nQD8SS3IMv44fe6V4cxHii6mTb7hueRw9jmHYkprywNbMumT2b7EgpS1nbcHe4uc/+JUQ4huMeNm995lsesuQnpi5dtUlTfHImjVrbpf/YikHNBBLcsv9IO9zSr2pCGkChPRw17kAIXXs8n4gtbOUAFmX33PrcZhUNwfzPqRJjhyayCoUc9SAB/qB1tpctBw5OSDkfJAsJKRp0NqRS3XVsdP7AXOzQIB0/sdKgFB+z2n0BvM+JBRw2blUxaAB0AJLeouXZSx2QAOxJKfyO5wPQy8SEoRiubggRy0YlD+pLEAzGYVfx48dFUJCAvHJJSHtqAWD8ieLBegxsSSX/A/dD2kLuKAc1oo5asECjVksQJ3L/9D9kDY5sH+fpI7j/PQFGnNPgFRyCP/BavxGLhPe6H5I2+SSC3KYHrpBa01B2QH1xJJcwq8DLLuTloH45FARc9SEJQVoIJbcnP27pA5i79zW5pA02bP7KUkdx6hoSQGyTkDnEIJNZtQST9IGTbCpvwwdNeGe1pQFyCoBfXN2NovFdE/Q/ZCIwCLolIEmODQkLnRAujvRcv5z+tUvvG2YfCYxkcMyIIfUzAbTEW0ckPX6rxzCr9TfNiQ/kIxOPQy7Ze+AQKE5nRQgJp9JjOzY/rikjOMW1D38sbb8iQ2ph2B403DaIYmR9BPRTtXxBQ7oe7ZflXoHNN0PiZXUX4yOIVgPfzg5IGS6U6+ApW5zSb6k7s4dK2FFKd5JgHLI/zD8IjGT+v155+53tpeOq2AuJfgc+n8oQCRm+onfnw4mpSjFwwH1bL8idQcEi8uNBknMbEq8P23OLQ9UCJCV+wGpOyC6HxI7W/p9SRnHKvlWRweU9iJUuh8SO6l36DvkgIBbCJY6qdtb0g1SnpLo6IB6a12uTr8J8WEhJHZSvk/v3r3jcrmbA3JsNIqOjRnM3yX5k3KqwDEEWw8Bsu6CJoQ0T9oOyKlQ9Yh1CJbDGI71TEKTBEj9PnUoxa93ygGlDnNAhESFfQ4o9fwPISQMDgvWNzwkHeKuW4KMkFY4fGii9R1bsOoBaRfsdtHkCggIkHUndOrcyWAtG8mfGDr2y2NrIERfKSE6c/Y975GQ9VKMHBaiEkLcQXc2ZlZfv3ZVTr/z9qqNkg4hmH0j4h2GL4R0HiNExz1ta9WpKhghxA/Hjx2V8x+8X7tpslMCNMdKHiHewI6uF3/7m1oiRAdECKkMEuYQoap0zAGl381NSGxAhKZOvi5V6JQAMZFOSDMcOTRRaccZOiBCiBfOqBI98kEua9nQiDgSi+UYOQzzcpxVQoh3UtjaqurYGvQLHTn0ksuay9udWoqR+qaKJE0gOOcufCgXP/4kmTWVCKewHOR5xyUhCMUclm50S4AASvEcTEZCgYfxyMs/Te7lhzVgOGbUgQSzbanddXNF5IBu21yY8pzaMkxEk1DgZXfghReTdt4fKdd2+OWfOX2NQ1/QyFqAciGH3V1JGkB8clhDCSd0+uwvpQmsBSj17UIMsxQgEoCPinxPPjlH5LCaEFMIUKdKQ0xEkxAg4ZwTEJ/Pr3wpnnELwXLIA83OzgohTYOwJTdm/H9P3zoJUA4zleGAONuINAnvL3sgQCPbi3PJA12f+VoIaQqO/rXGLQTLZVubHO0xIQlSCNAN26tzcUAsxRMSBbedHFAuHcQQIMbphLTOaO2aNWsgQFYitKX/qOQAxIcuiJBWuQ3tMeM4rARo/br1kguX/fc0EELsGeEPI0BWeSDkgNZlkoi+fOULIYS0xrf4Y235ExtymAsEbuldHwkhrTDCH04OCMSwa6MvKECEtMYIfzxU/sSGfkYChAV22N+IkBjBcK89u58UH0y99YvYCi+F6Xmo/IkNuYRgANUwuKAqw7QJaRq87H3dmxHmbgvNKUIwt1J8X3ICLogQEpTbWnMW7IrRuUoYQDWMTYmEBOWe1pQF6C9iSU6JaHDuwrQQQoJxT2ucHRDIpSPa0NS0N0LIkgzNB5UEKLek7XjblGkhhARhZD64J0AqKQQBskpE51g1ogsiJAi3tdYULN6a2coFIQmdyzY9BrogQoKwQGMWC5B1InrH9sclN+CC5hLZuZKQRFmgMYsFaCiW5NQRbYALmjzxmhBCGmNY/qSyAD29+ynJEXRGszmRkMYYlj9ZIEC6O3EkFqAhMbc8kAG7QDIUI8Q7N0wHtGHtEhddEkv27P5vyRGGYoQ0wgNFrrU2Fy1Hzos4x/thvyeEEG88YG6WEqBPxZLcV5EjFOPoVkK8MVz8Fw8IkI7RhmIB+oFyF6HJEz9nPoiQ+jyQ/wFrl7n4j2KJr4FJsYJ80IEXXqQIEVKPJTVlOQEaiiW5luPLYH40RYiQWiyZ2nloqb9UVmk4Pz8Pu7RBVgHleIRhuc9XNiJ08be/yWaDRhI35y9My8WPPxEftDyOdQRNWeo/PLTCFyFj/ZJYgGUZXRjwThEiIclo88zhcv9h7fJfI9NiyfP7fyJdwYgQd1YlxJplewtXEiDr8RwmDOsKEKE9e5/hkg1CVgfjN5Zt7VlWgHTJzKErOu9q2FJMvfU/bFYkZGVW7CtcyQGBabHk+f0/li6CZsUdOweskBGyNCuamNUEyDoM60JT4nIgJNu+cxfdECELWTH8AisKkA7DrBMdx4+9Il3GuCEmqAkpWHVZ12oOyOp/YoADymnPsCqYBPVxLuEgZFXzsqoA6QYiqzAMHDlk1TqUPR99/EkRllGISEdZtvmwjI0DAu9aXqcEaELIfShE3QNtKcSugr7G5qL5+Xksyfi3WHL45Z8GGWOBkA/lf+zUiqMc/uFhRziEDu3rM19H06m9Z/dTRcWwi20LXWKHeuncyuyFgxzv8WNHbS/frBzQaLWLrAQIKBG6qk4Dm2vxsKNbuEmmTr7u5LbmlBghSQwxiuHG2KTekhAjhKxc1pEf6BHLrVH18md/sN2WfajEZ5fNhS4CNFCnq7bXQ4CadB1zo39IFSBEH338u6hK5vilHlCuCI5uS4a7jXQRVEJRjMgF3JtYA2nJQSVA0zYXWgsQUCKEMGzVFfKgaReEH0advqM5vaYrNpu8SS9rgSAtDitJWsBx59AbhnvwinI/lrktJJ83iyWuAjSlTm/aXt9kHIyHEyJU9wGN/SYxrmh8fpThWmKkHorh+cJz5uDMJ5UAnbW92FWA4H7+KZYuCBUgVH+aAsnc0++8LXXBlsxTb/1CUgAOqd/vF2K0RZ3xVmLYFjd4Ds6ol1xqSWm89M6o58uxqmeVfDY4CRBQIjQtlnOCQP/7PyjGmjYFHr7zH7xf2xkgZkdI1uS/tUnwc8DPAAJlRAlvL4pTPFy+8kVxnyH8t+UjDwPJUOxYv+5hq2s3FvfPRnlaVWkrRBfTSnwOunxBFQEaiEMyOkSIg4cOTqjuWrTURWgxp9/5v07NasqRjb3/lLrUzZc64OR+gG0j4j10d+PQ9nqUypveQdUMCavb7GfcVA5QfEhgLrmKD3AWIM0p2wth4yYDLVKFXYUQ1bGteFOgxyhl0DBG8SGBsU48l6kkQK4uCMniUPvIww3BCdUJ++DaUl3Thg5rh25VQnwwtFn3tRRVHRCwdkEAIUFI6uaepk6+kVwCFyJ/Sv27CQmMkxaUqSxAri4IoU3ogWV1Rej8B79KqhHwcLGsgwshSVBGVd0PqOOAgJPytTGwDCJUtREMD3MqoRjcDycRkBZwKrsvppYAVXFBbawCRzdq1XVpyKdsSqD7eLLj0yhJKwzruB9Q1wEBJxeEHEUbYQ0S01X7e0Lnr1yBQHZ1UwDSKpVzP4baAuTqgtoKa1AdmzzxmlQBzi3mUAw70xISmOm67gf4cEDAKQ4M0Zy4FGiFr5oPQlUs1l0/WHYnLVDb/QAvAqQ7IK3HtiIEayusQVK6aiiGhXmx5YPMglRCAjJdpet5KXw5IDAlDsPr2wprID5VQzE86D5GgPiE4RcJzEg8uR/gTYD0HmLWLgggdGjjYUYoVrUqFpsIcbY0Ccy7vtwP8OmAIEJTMlZIK/AQn2kpFKszpwgd0pgQF0M4xnEbJCAjl2FjNjwk/kFC2npcB2aV4C0eYheNMqiKISFdNQw0TqjNsa7I/+Q4shVhcgq7y3ZwK/JJ8YzzPCAbXIeW4Ybbs/fZ4A8yHt6Za1drPcT4t9fptq4DxDuX8SEAUwwuqiOWLZRsQP8VOvybGpUb0Twg52FjNngNwUocE4eEdFtVMYgHxrHWAf92lOhPt1AhyyUBjd8D9pJDWJyS+ACz8WRuW/AsYiQeE89lGhEgnZB2+ge3VRXDjeNjAiLehNeVm2paiCB4eOPO/vXP2az9QhgbOgT3TY77gJU45TPxXKYpByQ6WTV0+RpUxUInVX24oDJlIfKVIzALTWGlITxtVQ+bANMKUsj32IBQPMPtt4e2e3xVoZEckEHlgnrq9I1Y7qIBMLB7995ngs5lxsOMB7sJ8H2Y7aHxoOFY6XuD2Jih8n11PKHCrJy34tmxc1AUBHIBLwqfEzVbzgEhktnWlPsBjQoQUCKEfNAZl69pY5ucgIO7C5Z6U3Ztzy/0Yx1++WeSE75fZi0L0KTvsvtiGgvBDFVCsTZGoobenHBj4XQWHl0jl9CrDNytrzBsrl1nOGxafEDjAqRB+c66KgZCj0Qdh0lpVWBSZy6j0KvMnbvfiQ98taVUyBeOpOagMVuCCJCOIZ2/IYxEDVnazmEfb9I+vvKXCFF9sMl9sfKpJvM+ZUI5IIjQp+K4VgzJ2HMBG+3ogkhM+GhNgPtxdEDvNln1WkwwAdJMicNaMYAwLOQ+XXUmJxLiC7wIfVQHHdMYIxk/o8EIKkC6QXGXOOaDkJQONdAev/TQFThCFlNnsXQZx/DrQ/2MBiO0AzL5IOe2bjTfhZp7jPZ65oNIW6ANxVdv1Ha38vsNCUxwAQK6vOeUDwIIxUJVxuruKUZIFdCa4NOBP0EBWpYpcfyGkUxDU1WoyhhFiIQEeR+si/MFmg8dxvWOQlW+yrQmQDrW3CeOSek2RIg5IdIkKHrgHoP4+CyAHHBLWfxFWqBNB2TyQfvEETMMLJQIISbHmqUMFxqSFoHYIN+4Z+8zXhdEGxzDr0+lBZqYiOiEEqEb8/PzmLTmtF4s9ERCJAUx98UsE+ni0okY2aTvAx/gd+wjBFppicndu98V9yt6fFZbmFwHFGwcd0sZSgs0vhjVFiVCU+r0pjgyp2+akNMUcdMf2P8T9UveRyGqAUrNcAB1wO/i+rWh+GCueMkMJAdm1M/EQYCw7muXtECrIVgZPdDeeaJT6HAM4E2J3BAcER6i1Idpkbyo4H5am6TWeghWRonQhHJCj6kPt7p8XZsD4vEGx4HkOKoOGLCPVoEm2gWQg7o5+/fie8TbOmSHOEmD8cRMp51yUQxqJf8DohIgDawghpj1XL6o7V0qEMtj8WB5ASEECTfElv6jxRkubd26h4v/trhD1TSemfOcFhmsrJ5VuYI76v9fzhfg6ylAZDHjAflO7ufT0N3PZaITIPwwlAuCCGFrn57L18awVU4Zs7DV16pmQlZiPFd9QhxpZNi8LdHkgMro8jxEaCSOtJETIqRtcL+feedtcWS6jebDMlEKEKgrQpc/u8RdQ0lnwNgax9ALtOp+QLQCBEqNis4xKnIulz/7Qytb/RASEuypV+Fl+27b7gdELUAAjYpSYYSHAaNdQ43yICQ0EJ/n9/9EHBmpo/F5zzZEL0CgrgihLMmKEckJs5twBfEBp2JwPyAJAQJahLZJhZwQQHUA3aFMTpPUwT2MQktF8ZkOOXJ1NZIRIFAnMQ1MhYzJaZIqKLXXuIdH6piUiEhKgIAPEUJymnkhkhIIuZBGgPhUqHaBYhxym02HS5GcAIG6IgSQF8L+7bnssU7yBS/LmWtXqzQZljkYS96nTJICBPQPEzmhymMksWjvinJDzAuR2Biv6Xql2OYZL8uaL8pTelus6EhWgADspDogQs7zpQ0bi3EOVxmSkdYxC5rhzGeKe/KoD4d+Sk+aiJIYF6M6o37Ax+bn5xHbOs8TMuCXjV/+8ROvRbGOjOQPnHe//2iRUMa9h7PnlEDU4gOyECCAH7QWIafJimVMhQGzfuoOyiLdBVuKYwLCclTYrbQKk3r3majJRoAAfuBKhIbqw9+L40p6A0IyWGDsp3Tm7Ht0Q5GD8SU7drYyzG9ZMHKlxUmZeAkfjDXns5isBAjoGdOVxnmUQYL66d1PFm7o3IXWBsYRC/iSuMdIxqX2kSRC0kno5cAvQB2bpUZyGox7L96IsoMag8oIKYF7fVtK4gOyFCADktMy7vys1XxlKmVoBItFiJraTYEkx0jGrudYbE2GNmQtQEAn4iqvISuDRrDxGpwwe9QTsgIQG8zzgesZSqJkL0Cg1LRYKyQDJkmNsAwD6AkJjBGezaj8puh6ynRCgIBuWkRIdlA8uCEIEcqtECN2UpMAZCU8hs4IkEGPIkCVbCgeQDiG/BCFiDQARGZaxjmeR3ISHkPnBAjoKhlEqHaC2kAhIh7AvTiUcarAiM7BlHM8q9FJATKUEtRD8QSFiDhgwiqkBbZpwTEVraF0gE4LECi5IS+5IYMRIlTNsMTDN1v6fUkds0ljbjgss7itw6ppPfGzc3RegAyl3JDXtmezvgxVM5/l+5XWGqVCPwMRXQqHaYUj6ThrhDzA/Pz8czJe1NoTz2C75a9m/lR7nRkEreJkvGhAM2X/+z+QnNiz+ylVHX3f9vJL6sX3nHQYOqAlwEI+vZQDSeqReASiUQ7P8LHryugK+39HCb7v3PZtc5wr1cmwqwwd0CooN9RTpyl1NPakwAl8fuVLufjxJ/f2k18KMyWv5mjOqMD3vmfvs1ksKMXvBnOlHNjVlWTzclCALAkhRMCEaDPqwKgJsEm5nb7KK1RxSymA7/nACy8mLUJ4KTjuPYcE9CPScShAjighGsh48uJAiDcgQikOgkOrxaRyPhUKDKh8HZSOQwGqiBaiX0sDieoug5AMYejN2b9JzMCJmlGqFdmc2uiMJqAA1YSOiFSA7kdDAfKEFqJX1dHpsiqxgu5HwzK8J1DNUMc+9SHK95zhSpbjFMXnPnRADaGrZnBDcEU9IUTkXT0ShmgoQAFQYjQh4/L9QEhXQdNhdHuztw0FKCDaFeEN+KzQFXUJbJFzkOLzIBSgltBJ6wkZi9EGIbkS/e6kbUIBigC9+BUHxSgfhjIWn6GQZaEARUZJjH4kDNNSZCjjZHMSO5O2DQUoYnSYZsRoq5AYQV4HCeY/qmNIx+MGBSgRlBghNBvIWJAeEwrSYkbquCRjMRhKGG4zsVwPClCilAQJhxGkruSPjOv4i4zFZkghSBMKUEYoUYII9SQvUSqLDc43ujo/OUcoQJmjndJWffTU8T19xhGLON2W+0LzrT6PZCw2dDYZQwHqMFqcejIWop7cr7p9TxZW4MzHG2R10RqVPr696LijzyO5LzjMo3SY/web4slIXLdw7gAAAABJRU5ErkJggg==;" parent="1" vertex="1">
                    <mxGeometry x="-10" y="510" width="70" height="70" as="geometry"/>
                </mxCell>
                <mxCell id="y557Q_bQhCqkkRHPXqMb-15" value="" style="group" parent="1" connectable="0" vertex="1">
                    <mxGeometry x="-150" y="150" width="90" height="100" as="geometry"/>
                </mxCell>
                <mxCell id="y557Q_bQhCqkkRHPXqMb-16" value="" style="group" parent="y557Q_bQhCqkkRHPXqMb-15" connectable="0" vertex="1">
                    <mxGeometry width="90" height="66" as="geometry"/>
                </mxCell>
                <mxCell id="y557Q_bQhCqkkRHPXqMb-17" value="" style="html=1;verticalLabelPosition=bottom;align=center;labelBackgroundColor=#ffffff;verticalAlign=top;strokeWidth=2;strokeColor=#0080F0;shadow=0;dashed=0;shape=mxgraph.ios7.icons.user;" parent="y557Q_bQhCqkkRHPXqMb-16" vertex="1">
                    <mxGeometry y="36" width="30" height="30" as="geometry"/>
                </mxCell>
                <mxCell id="y557Q_bQhCqkkRHPXqMb-18" value="" style="html=1;verticalLabelPosition=bottom;align=center;labelBackgroundColor=#ffffff;verticalAlign=top;strokeWidth=2;strokeColor=#0080F0;shadow=0;dashed=0;shape=mxgraph.ios7.icons.user;" parent="y557Q_bQhCqkkRHPXqMb-16" vertex="1">
                    <mxGeometry x="30" width="30" height="30" as="geometry"/>
                </mxCell>
                <mxCell id="y557Q_bQhCqkkRHPXqMb-19" value="" style="html=1;verticalLabelPosition=bottom;align=center;labelBackgroundColor=#ffffff;verticalAlign=top;strokeWidth=2;strokeColor=#0080F0;shadow=0;dashed=0;shape=mxgraph.ios7.icons.user;" parent="y557Q_bQhCqkkRHPXqMb-16" vertex="1">
                    <mxGeometry x="60" y="36" width="30" height="30" as="geometry"/>
                </mxCell>
                <mxCell id="y557Q_bQhCqkkRHPXqMb-20" value="Developers" style="text;html=1;strokeColor=none;fillColor=none;align=center;verticalAlign=middle;whiteSpace=wrap;rounded=0;" parent="y557Q_bQhCqkkRHPXqMb-15" vertex="1">
                    <mxGeometry x="15" y="70" width="60" height="30" as="geometry"/>
                </mxCell>
                <mxCell id="y557Q_bQhCqkkRHPXqMb-21" style="edgeStyle=orthogonalEdgeStyle;rounded=0;orthogonalLoop=1;jettySize=auto;html=1;" parent="1" source="y557Q_bQhCqkkRHPXqMb-19" target="y557Q_bQhCqkkRHPXqMb-11" edge="1">
                    <mxGeometry relative="1" as="geometry"/>
                </mxCell>
                <mxCell id="y557Q_bQhCqkkRHPXqMb-22" value="1.- Push Code" style="edgeLabel;html=1;align=center;verticalAlign=middle;resizable=0;points=[];" parent="y557Q_bQhCqkkRHPXqMb-21" connectable="0" vertex="1">
                    <mxGeometry x="-0.2443" y="3" relative="1" as="geometry">
                        <mxPoint x="10" y="-12" as="offset"/>
                    </mxGeometry>
                </mxCell>
                <mxCell id="y557Q_bQhCqkkRHPXqMb-23" style="edgeStyle=orthogonalEdgeStyle;rounded=0;orthogonalLoop=1;jettySize=auto;html=1;exitX=0.75;exitY=1;exitDx=0;exitDy=0;exitPerimeter=0;" parent="1" source="65hM38Zp2tYio51TE6FY-1" target="y557Q_bQhCqkkRHPXqMb-6" edge="1">
                    <mxGeometry relative="1" as="geometry">
                        <mxPoint x="595.0769230769229" y="402" as="sourcePoint"/>
                        <Array as="points">
                            <mxPoint x="595" y="388"/>
                            <mxPoint x="595" y="446"/>
                            <mxPoint x="565" y="446"/>
                        </Array>
                    </mxGeometry>
                </mxCell>
                <mxCell id="y557Q_bQhCqkkRHPXqMb-25" value="Non Prod Env&lt;br&gt;Prod Env" style="image;sketch=0;aspect=fixed;html=1;points=[];align=center;fontSize=12;image=img/lib/mscae/Kubernetes.svg;" parent="1" vertex="1">
                    <mxGeometry x="730" y="120" width="72.92" height="70" as="geometry"/>
                </mxCell>
                <mxCell id="y557Q_bQhCqkkRHPXqMb-26" style="edgeStyle=orthogonalEdgeStyle;rounded=0;orthogonalLoop=1;jettySize=auto;html=1;entryX=0;entryY=0.5;entryDx=0;entryDy=0;entryPerimeter=0;exitX=1;exitY=0.5;exitDx=0;exitDy=0;exitPerimeter=0;" parent="1" source="65hM38Zp2tYio51TE6FY-1" target="y557Q_bQhCqkkRHPXqMb-2" edge="1">
                    <mxGeometry relative="1" as="geometry">
                        <mxPoint x="650" y="360" as="sourcePoint"/>
                    </mxGeometry>
                </mxCell>
                <mxCell id="y557Q_bQhCqkkRHPXqMb-27" style="edgeStyle=orthogonalEdgeStyle;rounded=0;orthogonalLoop=1;jettySize=auto;html=1;entryX=1;entryY=0.5;entryDx=0;entryDy=0;entryPerimeter=0;" parent="1" source="y557Q_bQhCqkkRHPXqMb-25" target="y557Q_bQhCqkkRHPXqMb-2" edge="1">
                    <mxGeometry relative="1" as="geometry">
                        <Array as="points">
                            <mxPoint x="870" y="155"/>
                            <mxPoint x="870" y="349"/>
                        </Array>
                    </mxGeometry>
                </mxCell>
                <mxCell id="y557Q_bQhCqkkRHPXqMb-28" style="edgeStyle=orthogonalEdgeStyle;rounded=0;orthogonalLoop=1;jettySize=auto;html=1;entryX=0.016;entryY=0.505;entryDx=0;entryDy=0;entryPerimeter=0;" parent="1" target="y557Q_bQhCqkkRHPXqMb-25" edge="1">
                    <mxGeometry relative="1" as="geometry">
                        <Array as="points">
                            <mxPoint x="585" y="155"/>
                        </Array>
                        <mxPoint x="585.0769230769229" y="302.0000000000001" as="sourcePoint"/>
                    </mxGeometry>
                </mxCell>
                <mxCell id="y557Q_bQhCqkkRHPXqMb-29" value="6.- Build docker image" style="edgeLabel;html=1;align=center;verticalAlign=middle;resizable=0;points=[];" parent="1" connectable="0" vertex="1">
                    <mxGeometry x="470.0033333333331" y="320" as="geometry">
                        <mxPoint x="215" y="-8" as="offset"/>
                    </mxGeometry>
                </mxCell>
                <mxCell id="y557Q_bQhCqkkRHPXqMb-30" value="&lt;span style=&quot;color: rgb(0, 0, 0); font-family: Helvetica; font-size: 11px; font-style: normal; font-variant-ligatures: normal; font-variant-caps: normal; font-weight: 400; letter-spacing: normal; orphans: 2; text-align: center; text-indent: 0px; text-transform: none; widows: 2; word-spacing: 0px; -webkit-text-stroke-width: 0px; background-color: rgb(255, 255, 255); text-decoration-thickness: initial; text-decoration-style: initial; text-decoration-color: initial; float: none; display: inline !important;&quot;&gt;7.- Deploy to staging environment&lt;br&gt;automatically or deploy to prod env&lt;br&gt;&lt;/span&gt;" style="text;whiteSpace=wrap;html=1;" parent="1" vertex="1">
                    <mxGeometry x="510" y="100" width="170" height="70" as="geometry"/>
                </mxCell>
                <mxCell id="y557Q_bQhCqkkRHPXqMb-31" value="&lt;span style=&quot;color: rgb(0, 0, 0); font-family: Helvetica; font-size: 11px; font-style: normal; font-variant-ligatures: normal; font-variant-caps: normal; font-weight: 400; letter-spacing: normal; orphans: 2; text-align: center; text-indent: 0px; text-transform: none; widows: 2; word-spacing: 0px; -webkit-text-stroke-width: 0px; background-color: rgb(255, 255, 255); text-decoration-thickness: initial; text-decoration-style: initial; text-decoration-color: initial; float: none; display: inline !important;&quot;&gt;8.- Kubernetes cluster with permissions to pull images from ECR&lt;br&gt;&lt;/span&gt;" style="text;whiteSpace=wrap;html=1;" parent="1" vertex="1">
                    <mxGeometry x="900" y="210" width="170" height="70" as="geometry"/>
                </mxCell>
                <mxCell id="y557Q_bQhCqkkRHPXqMb-32" value="&lt;span style=&quot;color: rgb(0, 0, 0); font-family: Helvetica; font-size: 11px; font-style: normal; font-variant-ligatures: normal; font-variant-caps: normal; font-weight: 400; letter-spacing: normal; orphans: 2; text-align: center; text-indent: 0px; text-transform: none; widows: 2; word-spacing: 0px; -webkit-text-stroke-width: 0px; background-color: rgb(255, 255, 255); text-decoration-thickness: initial; text-decoration-style: initial; text-decoration-color: initial; float: none; display: inline !important;&quot;&gt;9.- Send notification to slack channel&lt;br&gt;&lt;/span&gt;" style="text;whiteSpace=wrap;html=1;" parent="1" vertex="1">
                    <mxGeometry x="620" y="450" width="140" height="40" as="geometry"/>
                </mxCell>
                <mxCell id="y557Q_bQhCqkkRHPXqMb-33" value="&lt;span style=&quot;color: rgb(0, 0, 0); font-family: Helvetica; font-size: 11px; font-style: normal; font-variant-ligatures: normal; font-variant-caps: normal; letter-spacing: normal; orphans: 2; text-align: center; text-indent: 0px; text-transform: none; widows: 2; word-spacing: 0px; -webkit-text-stroke-width: 0px; background-color: rgb(255, 255, 255); text-decoration-thickness: initial; text-decoration-style: initial; text-decoration-color: initial; float: none; display: inline !important;&quot;&gt;5.- Verify if the pipelines are from any specific branch;&lt;br&gt;&lt;b&gt;master branch&lt;/b&gt;: will build docker image and push it to ECR, this branch only deploy manually to prod env.&lt;br&gt;&lt;b&gt;develop branch&lt;/b&gt;&lt;/span&gt;&lt;span style=&quot;color: rgb(0, 0, 0); font-family: Helvetica; font-size: 11px; font-style: normal; font-variant-ligatures: normal; font-variant-caps: normal; letter-spacing: normal; orphans: 2; text-align: center; text-indent: 0px; text-transform: none; widows: 2; word-spacing: 0px; -webkit-text-stroke-width: 0px; background-color: rgb(255, 255, 255); text-decoration-thickness: initial; text-decoration-style: initial; text-decoration-color: initial; float: none; display: inline !important;&quot;&gt;: will build docker image, push it to ECR and deploy it to staging env.&lt;br&gt;&lt;b&gt;any other branch&lt;/b&gt;&lt;/span&gt;&lt;span style=&quot;color: rgb(0, 0, 0); font-family: Helvetica; font-size: 11px; font-style: normal; font-variant-ligatures: normal; font-variant-caps: normal; font-weight: 400; letter-spacing: normal; orphans: 2; text-align: center; text-indent: 0px; text-transform: none; widows: 2; word-spacing: 0px; -webkit-text-stroke-width: 0px; background-color: rgb(255, 255, 255); text-decoration-thickness: initial; text-decoration-style: initial; text-decoration-color: initial; float: none; display: inline !important;&quot;&gt;: will build docker image only&lt;br&gt;&lt;br&gt;&lt;/span&gt;" style="text;whiteSpace=wrap;html=1;" parent="1" vertex="1">
                    <mxGeometry x="230" y="130" width="210" height="160" as="geometry"/>
                </mxCell>
                <mxCell id="65hM38Zp2tYio51TE6FY-1" value="Codepipeline" style="sketch=0;points=[[0,0,0],[0.25,0,0],[0.5,0,0],[0.75,0,0],[1,0,0],[0,1,0],[0.25,1,0],[0.5,1,0],[0.75,1,0],[1,1,0],[0,0.25,0],[0,0.5,0],[0,0.75,0],[1,0.25,0],[1,0.5,0],[1,0.75,0]];outlineConnect=0;fontColor=#232F3E;fillColor=#C925D1;strokeColor=#ffffff;dashed=0;verticalLabelPosition=bottom;verticalAlign=top;align=center;html=1;fontSize=12;fontStyle=0;aspect=fixed;shape=mxgraph.aws4.resourceIcon;resIcon=mxgraph.aws4.codepipeline;" parent="1" vertex="1">
                    <mxGeometry x="542" y="310" width="78" height="78" as="geometry"/>
                </mxCell>
            </root>
        </mxGraphModel>
    </diagram>
</mxfile>